/* XPM */
static char * face_xpm[] = {
"32 32 45 1",
" 	c None",
".	c #EEC2C2",
"+	c #EDBDBD",
"@	c #EFC4C4",
"#	c #EBB7B7",
"$	c #E8ADAD",
"%	c #EDBEBE",
"&	c #EAB5B5",
"*	c #EAB4B4",
"=	c #E9AFAF",
"-	c #E8AEAE",
";	c #E8ABAB",
">	c #F0C9C9",
",	c #F3D3D3",
"'	c #F4D6D6",
")	c #ECB9B9",
"!	c #ECBABA",
"~	c #EBB6B6",
"{	c #F0CACA",
"]	c #F1CCCC",
"^	c #F2D2D2",
"/	c #F3D4D4",
"(	c #F3D5D5",
"_	c #D8B1B1",
":	c #E9B2B2",
"<	c #ECBCBC",
"[	c #EFC7C7",
"}	c #F1CECE",
"|	c #B8A2A2",
"1	c #DAA8A8",
"2	c #CFA6A6",
"3	c #CAAFAF",
"4	c #DDC2C2",
"5	c #DFC4C4",
"6	c #D3B9B9",
"7	c #CCB3B3",
"8	c #B9A3A3",
"9	c #DBC0C0",
"0	c #E9CDCD",
"a	c #E7CACA",
"b	c #E3C7C7",
"c	c #E4C8C8",
"d	c #E1C6C6",
"e	c #CEB5B5",
"f	c #F0D2D2",
"                                ",
"                                ",
"                                ",
"                                ",
"                                ",
"                    .+@#$%      ",
"                &**=-;;=>,'     ",
"          )!~%>{>>]^/(''''''    ",
"      _:<[>},,''''''''''''''    ",
"     |1@''''''''''''''''''''    ",
"     |2,''''''''''''''''''''    ",
"     |3'''''''''''''''''''''    ",
"     |4'''''''''''''''''''''    ",
"     |5'''''''''''''''''''''    ",
"     |6'''''''''''''''''''''    ",
"     |7'''''''''''''''''''''    ",
"     |7'''''''''''''''''''''    ",
"     |7'''''''''''''''''''''    ",
"     87'''''''''''''''''''''    ",
"     |7'''''''''''''''''''''    ",
"     |7'''''''''''''''''''''    ",
"     |9'''''''''''''''''''''    ",
"     |0'''''''''''''''''''''    ",
"     |a'''''''''''''''''''''    ",
"     |b''''''''''''''''''''     ",
"     |b'''''''''''''''''''      ",
"     |b'''''''''''''            ",
"     |c'''''''''                ",
"     8d'''''''                  ",
"      ef('                      ",
"                                ",
"                                "};
