/* XPM */
static char * solid_xpm[] = {
"32 32 70 1",
" 	c None",
".	c #E8ABAB",
"+	c #E9B0B0",
"@	c #ECBBBB",
"#	c #ECBCBC",
"$	c #CCA5A5",
"%	c #B9A2A2",
"&	c #CDA6A6",
"*	c #F2D0D0",
"=	c #B8A2A2",
"-	c #E0B9B9",
";	c #F3D4D4",
">	c #EEC1C1",
",	c #C8ACAC",
"'	c #F4D6D6",
")	c #F0CACA",
"!	c #BFA5A5",
"~	c #F2CFCF",
"{	c #C3A4A4",
"]	c #D5A9A9",
"^	c #EFC4C4",
"/	c #F2D1D1",
"(	c #BEA3A3",
"_	c #BCA2A2",
":	c #C6A4A4",
"<	c #E3AAAA",
"[	c #BBA2A2",
"}	c #BAA2A2",
"|	c #CEA6A6",
"1	c #EBB5B5",
"2	c #EDC0C0",
"3	c #C1A3A3",
"4	c #F0CBCB",
"5	c #CBA5A5",
"6	c #F1CDCD",
"7	c #F3D5D5",
"8	c #EDBEBE",
"9	c #F0C9C9",
"0	c #F2D2D2",
"a	c #F1CCCC",
"b	c #C8A5A5",
"c	c #F0C8C8",
"d	c #C0A3A3",
"e	c #C7A4A4",
"f	c #D0A6A6",
"g	c #ECCBCB",
"h	c #F3D2D2",
"i	c #DBA8A8",
"j	c #E3B8B8",
"k	c #C2A4A4",
"l	c #CFA6A6",
"m	c #E2AAAA",
"n	c #EEC0C0",
"o	c #DAA8A8",
"p	c #D7A7A7",
"q	c #E7AAAA",
"r	c #BDA2A2",
"s	c #EFC5C5",
"t	c #BFA3A3",
"u	c #C4A4A4",
"v	c #EDBDBD",
"w	c #D8A8A8",
"x	c #C2A3A3",
"y	c #C5A4A4",
"z	c #C7ACAC",
"A	c #C8B0B0",
"B	c #EFC6C6",
"C	c #C8AEAE",
"D	c #F3D3D3",
"E	c #CBA9A9",
"                                ",
"              ...+@#            ",
"             $%%&@**@           ",
"             %===-;;>           ",
"            =====,'')           ",
"            =====!''~           ",
"            {====]^/#           ",
"          (_$(=:<........       ",
"          ===[[}=_|<..121.      ",
"          ==========3<4'4..     ",
"          ===========56'768     ",
"          ===========}9'''~     ",
"          ============9'''0     ",
"          ============a''';     ",
"          b===========/''7c     ",
"    d}e<..f==========3g''h      ",
"   [%==5..i==========_j'''      ",
"  =======kil========%emn'n..    ",
"  ========[i<oppppppimq...+@@   ",
"   [===%====r$o<.......n'/s**   ",
"    ====t=======ui....v''';;;'  ",
"    =====_=======}w1s6''''7'''  ",
"    =======}}%}===t*''''''''''  ",
"    ==============_'''''''''''  ",
"    }==_==========x'''''''''''  ",
"    ==============y''''''''';   ",
"    ===========%==z'''''''';s   ",
"      === ========A'''7;''7B    ",
"            ======C'''D''7      ",
"              ====E7'''''       ",
"                [dw/'''''       ",
"                    ''''        "};
