/* XPM */
static char * arc_xpm[] = {
"16 16 128 2",
"  	c None",
". 	c #52340B",
"+ 	c #51340B",
"@ 	c #4E320B",
"# 	c #51330B",
"$ 	c #53340B",
"% 	c #50330B",
"& 	c #54350B",
"* 	c #824905",
"= 	c #925003",
"- 	c #9D5502",
"; 	c #935103",
"> 	c #854A04",
", 	c #5E3909",
"' 	c #5B380A",
") 	c #C19156",
"! 	c #EED6B4",
"~ 	c #D7B17F",
"{ 	c #A25C09",
"] 	c #D6B281",
"^ 	c #EFD9B8",
"/ 	c #CCA26D",
"( 	c #653C08",
"_ 	c #4F330B",
": 	c #473214",
"< 	c #50330C",
"[ 	c #9B6628",
"} 	c #F5E1C2",
"| 	c #F3DCBA",
"1 	c #F4E0C2",
"2 	c #EFD8B8",
"3 	c #F3DDBA",
"4 	c #F5E3C6",
"5 	c #966120",
"6 	c #4F330C",
"7 	c #483213",
"8 	c #493416",
"9 	c #9D8462",
"0 	c #4D320C",
"a 	c #C19155",
"b 	c #F4DFC0",
"c 	c #F3DBB6",
"d 	c #F3DCB9",
"e 	c #F3DAB5",
"f 	c #F4DDBE",
"g 	c #BB8D56",
"h 	c #50340D",
"i 	c #997F5B",
"j 	c #4A3516",
"k 	c #422D0E",
"l 	c #D9B286",
"m 	c #CBA16D",
"n 	c #F4DFBE",
"o 	c #433C32",
"p 	c #F2D7B0",
"q 	c #433B30",
"r 	c #423A2F",
"s 	c #F1D5B2",
"t 	c #C59C6A",
"u 	c #4F330D",
"v 	c #D4AA7E",
"w 	c #432D0F",
"x 	c #493415",
"y 	c #906B44",
"z 	c #C9A16E",
"A 	c #F3DBB9",
"B 	c #433A2F",
"C 	c #42392E",
"D 	c #EFCDA4",
"E 	c #463B2F",
"F 	c #453A2E",
"G 	c #EECDA9",
"H 	c #C29867",
"I 	c #906A42",
"J 	c #4A3315",
"K 	c #4D320D",
"L 	c #7C541F",
"M 	c #B59A78",
"N 	c #8B704B",
"O 	c #E0BD92",
"P 	c #EDC79C",
"Q 	c #ECC498",
"R 	c #EBC194",
"S 	c #DCB285",
"T 	c #886943",
"U 	c #B49471",
"V 	c #764E1C",
"W 	c #4C320D",
"X 	c #4D320B",
"Y 	c #B98F5B",
"Z 	c #EACAA6",
"` 	c #8C6C45",
" .	c #503611",
"..	c #513611",
"+.	c #5E421C",
"@.	c #4F3510",
"#.	c #89653B",
"$.	c #E5BC94",
"%.	c #B28654",
"&.	c #9E713D",
"*.	c #EECBA8",
"=.	c #E9BA8B",
"-.	c #E8B787",
";.	c #DDAC7C",
">.	c #D19F70",
",.	c #DBA674",
"'.	c #E4AB78",
").	c #E4A975",
"!.	c #EBC19C",
"~.	c #956834",
"{.	c #54350C",
"].	c #CBA378",
"^.	c #ECC49F",
"/.	c #E7B689",
"(.	c #E4AD7B",
"_.	c #E3A774",
":.	c #E5AD7E",
"<.	c #EABE99",
"[.	c #C79C72",
"}.	c #523409",
"|.	c #976F42",
"1.	c #CFA67E",
"2.	c #E1B793",
"3.	c #EAC3A1",
"4.	c #E1B996",
"5.	c #D0A781",
"6.	c #946E43",
"7.	c #4F320B",
"                                ",
"          . + @ # $             ",
"      % & * = - ; > , #         ",
"      ' ) ! ~ { ] ^ / ( _       ",
"  : < [ } | 1 2 } 3 4 5 6 7     ",
"8 9 0 a b c c d c e f g h i j   ",
"k l 0 m n o o p q r s t u v w   ",
"x y < z A B C D E F G H 6 I J   ",
"  K L M N O P Q R S T U V W     ",
"  X Y Z `  ...+. .@.#.$.%.X     ",
"  % &.*.=.-.;.>.,.'.).!.~._     ",
"    {.].^./.(._._.:.<.[.}.      ",
"      6 |.1.2.3.4.5.6.@         ",
"        X 7.@ X @ 7.X           ",
"                                ",
"                                "};
