/* XPM */
static char *stlsolid_xpm[] = {
"32 32 285 2",
"  	c None",
". 	c #A97D7D",
"+ 	c #AF8181",
"@ 	c #B68686",
"# 	c #B18585",
"$ 	c #BA9393",
"% 	c #CCA3A3",
"& 	c #937777",
"* 	c #998686",
"= 	c #948282",
"- 	c #927575",
"; 	c #B18A8A",
"> 	c #B89E9E",
", 	c #BDA2A2",
"' 	c #BF9898",
") 	c #887777",
"! 	c #B8A2A2",
"~ 	c #AB9696",
"{ 	c #807171",
"] 	c #B79797",
"^ 	c #F3D4D4",
"/ 	c #DEC2C2",
"( 	c #BE9A9A",
"_ 	c #B39E9E",
": 	c #8C7C7C",
"< 	c #A79393",
"[ 	c #9E8B8B",
"} 	c #8E7D7D",
"| 	c #A58D8D",
"1 	c #F4D6D6",
"2 	c #DCC1C1",
"3 	c #BEA0A0",
"4 	c #B7A1A1",
"5 	c #847474",
"6 	c #7F6F6F",
"7 	c #9C8888",
"8 	c #A89191",
"9 	c #F2D4D4",
"0 	c #E0C5C5",
"a 	c #C1A5A5",
"b 	c #A88D8D",
"c 	c #9F8C8C",
"d 	c #A89393",
"e 	c #AA9595",
"f 	c #A18D8D",
"g 	c #AB8787",
"h 	c #C5A2A2",
"i 	c #D1B5B5",
"j 	c #9E8787",
"k 	c #A68E8E",
"l 	c #A18383",
"m 	c #978181",
"n 	c #978585",
"o 	c #A28585",
"p 	c #CD9A9A",
"q 	c #DCA2A2",
"r 	c #D89F9F",
"s 	c #E4A8A8",
"t 	c #E8ABAB",
"u 	c #8A7A7A",
"v 	c #B49C9C",
"w 	c #AC9595",
"x 	c #9F8A8A",
"y 	c #918080",
"z 	c #8E7B7B",
"A 	c #A68585",
"B 	c #C39292",
"C 	c #C89393",
"D 	c #D89E9E",
"E 	c #E8B2B2",
"F 	c #E0B6B6",
"G 	c #CF9F9F",
"H 	c #CF9898",
"I 	c #8B7B7B",
"J 	c #AE9999",
"K 	c #B59F9F",
"L 	c #A89494",
"M 	c #A18E8E",
"N 	c #968383",
"O 	c #907979",
"P 	c #936D6D",
"Q 	c #A38A8A",
"R 	c #D5BBBB",
"S 	c #DAB8B8",
"T 	c #E1A6A6",
"U 	c #C59191",
"V 	c #928181",
"W 	c #B09B9B",
"X 	c #8A7979",
"Y 	c #897878",
"Z 	c #B08E8E",
"` 	c #EAC7C7",
" .	c #DDBCBC",
"..	c #CAA2A2",
"+.	c #AD9999",
"@.	c #9C8989",
"#.	c #958383",
"$.	c #7E7070",
"%.	c #9E8989",
"&.	c #DCB8B8",
"*.	c #E1C6C6",
"=.	c #D6BBBB",
"-.	c #CEB0B0",
";.	c #B19C9C",
">.	c #A08D8D",
",.	c #A08C8C",
"'.	c #988686",
").	c #A69292",
"!.	c #D9B6B6",
"~.	c #D8BDBD",
"{.	c #E7CBCB",
"].	c #CEB3B3",
"^.	c #948383",
"/.	c #867676",
"(.	c #A28F8F",
"_.	c #DDBBBB",
":.	c #CFB6B6",
"<.	c #CFB5B5",
"[.	c #937979",
"}.	c #8E7E7E",
"|.	c #817272",
"1.	c #7E6F6F",
"2.	c #9D8B8B",
"3.	c #B09A9A",
"4.	c #DEBFBF",
"5.	c #D7BCBC",
"6.	c #E6CACA",
"7.	c #F3D5D5",
"8.	c #CDAAAA",
"9.	c #8C7676",
"0.	c #796969",
"a.	c #8E7575",
"b.	c #AE8282",
"c.	c #AE8080",
"d.	c #9C7171",
"e.	c #715A5A",
"f.	c #706363",
"g.	c #867777",
"h.	c #A28E8E",
"i.	c #A99595",
"j.	c #A18888",
"k.	c #D5B7B7",
"l.	c #CDB4B4",
"m.	c #F3D2D2",
"n.	c #AD9696",
"o.	c #8D7B7B",
"p.	c #7D6E6E",
"q.	c #BE8C8C",
"r.	c #CF9999",
"s.	c #AF8787",
"t.	c #887878",
"u.	c #7C6D6D",
"v.	c #907F7F",
"w.	c #B29D9D",
"x.	c #978282",
"y.	c #8B7A7A",
"z.	c #A38F8F",
"A.	c #8F7E7E",
"B.	c #917B7B",
"C.	c #B78C8C",
"D.	c #C29C9C",
"E.	c #A89595",
"F.	c #A59292",
"G.	c #968484",
"H.	c #A49090",
"I.	c #B6A0A0",
"J.	c #9A7F7F",
"K.	c #C89696",
"L.	c #DFB4B4",
"M.	c #E2C6C6",
"N.	c #D8AEAE",
"O.	c #C99494",
"P.	c #DDA2A2",
"Q.	c #A49191",
"R.	c #B49E9E",
"S.	c #9D8A8A",
"T.	c #9A8585",
"U.	c #A67F7F",
"V.	c #B08484",
"W.	c #BA8F8F",
"X.	c #CA9D9D",
"Y.	c #D1A2A2",
"Z.	c #C59999",
"`.	c #BA9090",
" +	c #AC8585",
".+	c #A68080",
"++	c #8D6C6C",
"@+	c #946E6E",
"#+	c #C18E8E",
"$+	c #CA9595",
"%+	c #D39B9B",
"&+	c #D79E9E",
"*+	c #E3ABAB",
"=+	c #E7B7B7",
"-+	c #E9B8B8",
";+	c #9C8A8A",
">+	c #B39D9D",
",+	c #A89090",
"'+	c #A88787",
")+	c #A47D7D",
"!+	c #B88A8A",
"~+	c #D29A9A",
"{+	c #A47979",
"]+	c #B48484",
"^+	c #E7BABA",
"/+	c #DAB4B4",
"(+	c #D0B3B3",
"_+	c #EBCACA",
":+	c #9B8484",
"<+	c #8D7C7C",
"[+	c #AC9797",
"}+	c #9B8888",
"|+	c #9A8080",
"1+	c #9A7575",
"2+	c #BF8C8C",
"3+	c #C08D8D",
"4+	c #BE9797",
"5+	c #C1A9A9",
"6+	c #C7AEAE",
"7+	c #CCB3B3",
"8+	c #CAB1B1",
"9+	c #D0B5B5",
"0+	c #C6ADAD",
"a+	c #958080",
"b+	c #8E7C7C",
"c+	c #9A7878",
"d+	c #997676",
"e+	c #B09090",
"f+	c #C2A4A4",
"g+	c #D3B9B9",
"h+	c #DFC4C4",
"i+	c #E1C5C5",
"j+	c #EBCECE",
"k+	c #C4ABAB",
"l+	c #BDA6A6",
"m+	c #B5A0A0",
"n+	c #9B8686",
"o+	c #B8A0A0",
"p+	c #B9A2A2",
"q+	c #BAA2A2",
"r+	c #AB9797",
"s+	c #A78E8E",
"t+	c #C2AAAA",
"u+	c #DBBFBF",
"v+	c #988787",
"w+	c #A28B8B",
"x+	c #DDC2C2",
"y+	c #DABFBF",
"z+	c #A28D8D",
"A+	c #BCA2A2",
"B+	c #A58A8A",
"C+	c #D4BABA",
"D+	c #AF9191",
"E+	c #EFD1D1",
"F+	c #DDC0C0",
"G+	c #9F8B8B",
"H+	c #B59C9C",
"I+	c #DEC3C3",
"J+	c #F0D1D1",
"K+	c #DBB4B4",
"L+	c #A18F8F",
"M+	c #DDC1C1",
"N+	c #D3B8B8",
"O+	c #C8A6A6",
"P+	c #AD9898",
"Q+	c #B69E9E",
"R+	c #F1D3D3",
"S+	c #D9BEBE",
"T+	c #D8BBBB",
"U+	c #ECCFCF",
"V+	c #BFA7A7",
"W+	c #938181",
"X+	c #A18686",
"Y+	c #D1B7B7",
"Z+	c #E7CACA",
"`+	c #B59E9E",
" @	c #A08B8B",
".@	c #988181",
"+@	c #987676",
"@@	c #C5A9A9",
"#@	c #BDA5A5",
"$@	c #B39C9C",
"%@	c #CEB5B5",
"&@	c #BAA3A3",
"*@	c #C5ACAC",
"                                                                ",
"                            . + @ # $ %                         ",
"                          & * = - ; > , '                       ",
"                          ) ! ~ { ] ^ / (                       ",
"                        _ : < [ } | 1 2 3                       ",
"                        4 5 6 7 * 8 9 0 a                       ",
"                        b c d e f g h i '                       ",
"                    j k l m n o p q r s t t t t t               ",
"                    u 4 ! v w x y z A B C D E F G H             ",
"                    I J ! ! ! ! K L M N O P Q R S T U           ",
"                    V L ! ! ! ! ! W M X Y Z ` 1 9  ...          ",
"                    V L ! ! ! ! +.@.@.#.$.%.&.1 *.=.-.          ",
"                    V L ! ! ;.>.[ = } ,.'.).!.1 ~.{.].          ",
"                    ^.< K f X X /.= ~ 4 >.(._.{.:.1 <.          ",
"                    [.}.|.1.} 2.3.! ! ! < @.4.5.6.7.8.          ",
"        9.0.a.b.c.d.e.f.g.h.4 ! ! ! ! ! i.j.k.l.7.m.            ",
"      n.o.6 p.& q.r.s.t.u.X v.[ L w.! ! W x.( ~.1 1             ",
"    ^.y.y.'.z.M A.B.C.D.W E.F.G.#.G.H.;.I.J.K.L.M.N.O.P.        ",
"    < t.Q.R.S.S.4 d T.U.V.W.X.Y.Z.`. +.+++@+#+$+%+&+*+=+-+      ",
"      7 ;+! >+v.y I.! K ,+'+)+!+~+s P.O.{+]+T ^+{.4./+(+_+      ",
"        ).! ! 4 :+<+I.! ! 4 [+}+|+1+2+C U 3+4+5+6+7+8+9+0+4     ",
"        z.! ! ! I.a+^.R.! ! ! ! w.b+c+d+e+f+g+h+h+h+i+j+k+l+    ",
"        >.! ! ! ! m+v.n+o+p+q+! ! r+s+_+1 1 1 1 1 1 7.~.t+u+    ",
"        >.! ! ! ! ! w.o.v+I.! ! ! I.w+1 1 1 1 1 1 1 x+y+h+h+    ",
"        z+! ! A+! ! ! W y.[ ! ! ! ! B+7.1 1 1 1 1 0 C+9 h+h+    ",
"        z.! ! ! ! ! ! ! r+} [ 4 ! ! D+6.1 1 1 1 0 R E+1 F+      ",
"        G+e ! ! ! ! ! ! ! r+X f ! ! H+x+1 1 1 I+C+E+1 J+K+      ",
"            [ ).~   ! ! ! ! r+y.L+! I.I+1 1 M+N+9 7.x+O+        ",
"                        P+4 ! H.v.F.Q+I+R+S+T+R+U+V+            ",
"                            H.< = W+X+<.Y+x+Z+7+`+              ",
"                                 @.@+@@@g+#@$@f 7+              ",
"                                        l+%@&@*@                "};
