/* XPM */
static char * apply_xpm[] = {
"32 32 124 2",
"  	c None",
". 	c #000000",
"+ 	c #020402",
"@ 	c #050B05",
"# 	c #1B371B",
"$ 	c #3D7E3D",
"% 	c #254C25",
"& 	c #52AD52",
"* 	c #060E06",
"= 	c #304F30",
"- 	c #6ABF6A",
"; 	c #0D1F0D",
"> 	c #314331",
", 	c #90D290",
"' 	c #244B24",
") 	c #3E533E",
"! 	c #A2DCA2",
"~ 	c #4B934B",
"{ 	c #020602",
"] 	c #445B44",
"^ 	c #A7E1A7",
"/ 	c #6FBA6F",
"( 	c #060F06",
"_ 	c #111711",
": 	c #9ED59E",
"< 	c #87DB87",
"[ 	c #285728",
"} 	c #020302",
"| 	c #749D74",
"1 	c #92DE92",
"2 	c #61C861",
"3 	c #040A04",
"4 	c #324432",
"5 	c #A5E1A5",
"6 	c #6FD86F",
"7 	c #377437",
"8 	c #010101",
"9 	c #709770",
"0 	c #96DE96",
"a 	c #66D166",
"b 	c #0F220F",
"c 	c #3B503B",
"d 	c #81DB81",
"e 	c #499749",
"f 	c #000100",
"g 	c #050605",
"h 	c #94C894",
"i 	c #A0E0A0",
"j 	c #6BD76B",
"k 	c #2A5B2A",
"l 	c #587658",
"m 	c #87DC87",
"n 	c #65D165",
"o 	c #0C1D0C",
"p 	c #8BBB8B",
"q 	c #A3E0A3",
"r 	c #70D870",
"s 	c #4EA64E",
"t 	c #232F23",
"u 	c #8BDC8B",
"v 	c #265226",
"w 	c #6F976F",
"x 	c #A6E1A6",
"y 	c #76D976",
"z 	c #56B956",
"A 	c #091509",
"B 	c #90C490",
"C 	c #97DE97",
"D 	c #6AD76A",
"E 	c #3D873D",
"F 	c #070E07",
"G 	c #102010",
"H 	c #1E291E",
"I 	c #A4DCA4",
"J 	c #63CD63",
"K 	c #204B20",
"L 	c #010201",
"M 	c #2F5F2F",
"N 	c #61BC61",
"O 	c #639263",
"P 	c #334433",
"Q 	c #0E160E",
"R 	c #769F76",
"S 	c #73D873",
"T 	c #4AA44A",
"U 	c #030803",
"V 	c #152A15",
"W 	c #4E9E4E",
"X 	c #79D479",
"Y 	c #95D895",
"Z 	c #608B60",
"` 	c #1B2D1B",
" .	c #040504",
"..	c #A6DFA6",
"+.	c #98DE98",
"@.	c #65D065",
"#.	c #235323",
"$.	c #112711",
"%.	c #4DA54D",
"&.	c #73D173",
"*.	c #93DE93",
"=.	c #97D597",
"-.	c #78D978",
";.	c #5BC25B",
">.	c #0D1E0D",
",.	c #0A170A",
"'.	c #2B652B",
").	c #52B552",
"!.	c #6ED56E",
"~.	c #7BDA7B",
"{.	c #3B803B",
"].	c #1A3C1A",
"^.	c #55B955",
"/.	c #68D468",
"(.	c #132C13",
"_.	c #2C662C",
":.	c #64CE64",
"<.	c #56B656",
"[.	c #010301",
"}.	c #469846",
"|.	c #387C38",
"1.	c #1B401B",
"2.	c #285F28",
"3.	c #0E210E",
"                                                                ",
"                                                        . .     ",
"                                                    + @ .       ",
"                                                  # $ +         ",
"                                              . % & *           ",
"                                            . = - ;             ",
"                                            > , '               ",
"                                        . ) ! ~ {               ",
"                                        ] ^ / (                 ",
"                                      _ : < [ .                 ",
"                                    } | 1 2 3                   ",
"                                    4 5 6 7 .                   ",
"                                  8 9 0 a b                     ",
"                                  c ^ d e f                     ",
"                                g h i j k f                     ",
"                                l ^ m n o                       ",
"                              . p q r s .                       ",
"                              t ^ u n v .                       ",
"                            . w x y z A                         ",
"                            . B C D E .                         ",
"        . F G .             H I m J K .                         ",
"          L M N O P Q .   . R ^ S T U                           ",
"            . V W X Y Z `  ...+.@.#..                           ",
"                . $.%.&.*.=.5 -.;.>.                            ",
"                    ,.'.).!.~.D {..                             ",
"                      . ].^.D /.(..                             ",
"                        . _.:.<.[.                              ",
"                          ( }.|..                               ",
"                            1.2..                               ",
"                            8 3.                                ",
"                              .                                 ",
"                                                                "};
