/* XPM */
static char * cancel_xpm[] = {
"32 32 230 2",
"  	c None",
". 	c #000000",
"+ 	c #070101",
"@ 	c #6A1010",
"# 	c #2E0F0F",
"$ 	c #210707",
"% 	c #C81F1F",
"& 	c #D22525",
"* 	c #060202",
"= 	c #1D0505",
"- 	c #DA2222",
"; 	c #EE2323",
"> 	c #9E2C2C",
", 	c #0B0303",
"' 	c #D72222",
") 	c #F82626",
"! 	c #DD2C2C",
"~ 	c #371313",
"{ 	c #010101",
"] 	c #111111",
"^ 	c #030303",
"/ 	c #141414",
"( 	c #9C1818",
"_ 	c #FB2626",
": 	c #DE2020",
"< 	c #9B2D2D",
"[ 	c #1C0808",
"} 	c #BF1C1C",
"| 	c #8D1616",
"1 	c #180404",
"2 	c #060606",
"3 	c #871515",
"4 	c #FC2727",
"5 	c #E12020",
"6 	c #D72F2F",
"7 	c #311010",
"8 	c #2C2C2C",
"9 	c #681919",
"0 	c #DD2A2A",
"a 	c #E92323",
"b 	c #851414",
"c 	c #170404",
"d 	c #020202",
"e 	c #6F1111",
"f 	c #E42121",
"g 	c #D72626",
"h 	c #953030",
"i 	c #080606",
"j 	c #B33D3D",
"k 	c #D83232",
"l 	c #E72222",
"m 	c #E82424",
"n 	c #821414",
"o 	c #0C0C0C",
"p 	c #580E0E",
"q 	c #F92626",
"r 	c #E62121",
"s 	c #D71F1F",
"t 	c #CA3C3C",
"u 	c #120A0A",
"v 	c #1E0C0C",
"w 	c #BC4040",
"x 	c #D73333",
"y 	c #DF2020",
"z 	c #F62525",
"A 	c #FB2727",
"B 	c #AD1C1C",
"C 	c #340808",
"D 	c #090909",
"E 	c #580D0D",
"F 	c #EB2323",
"G 	c #D72323",
"H 	c #D03E3E",
"I 	c #3A1414",
"J 	c #131313",
"K 	c #0E0707",
"L 	c #A63939",
"M 	c #D74040",
"N 	c #D92323",
"O 	c #ED2323",
"P 	c #961717",
"Q 	c #0C0202",
"R 	c #050505",
"S 	c #3D0909",
"T 	c #E62323",
"U 	c #F32525",
"V 	c #D72121",
"W 	c #D74141",
"X 	c #602020",
"Y 	c #0D0D0D",
"Z 	c #040101",
"` 	c #4C1A1A",
" .	c #B03838",
"..	c #D72B2B",
"+.	c #DC1F1F",
"@.	c #EC2323",
"#.	c #D52121",
"$.	c #470B0B",
"%.	c #3F0A0A",
"&.	c #F42525",
"*.	c #DA1F1F",
"=.	c #D73E3E",
"-.	c #AF3B3B",
";.	c #0A0404",
">.	c #121111",
",.	c #501B1B",
"'.	c #C42B2B",
").	c #D71E1E",
"!.	c #DB1F1F",
"~.	c #AA1A1A",
"{.	c #5B0E0E",
"].	c #DB2020",
"^.	c #D73A3A",
"/.	c #C64343",
"(.	c #2A0E0E",
"_.	c #222222",
":.	c #1B0909",
"<.	c #921E1E",
"[.	c #F22424",
"}.	c #FD2727",
"|.	c #FA2626",
"1.	c #D73535",
"2.	c #2E1010",
"3.	c #481515",
"4.	c #B51D1D",
"5.	c #A03737",
"6.	c #190909",
"7.	c #020101",
"8.	c #962929",
"9.	c #D73B3B",
"0.	c #581F1F",
"a.	c #4B1A1A",
"b.	c #D74747",
"c.	c #D72020",
"d.	c #D73C3C",
"e.	c #903131",
"f.	c #0D0505",
"g.	c #070303",
"h.	c #A73A3A",
"i.	c #D72C2C",
"j.	c #D72929",
"k.	c #D73131",
"l.	c #D14646",
"m.	c #3B1414",
"n.	c #702626",
"o.	c #D73737",
"p.	c #632222",
"q.	c #581E1E",
"r.	c #D73636",
"s.	c #D23333",
"t.	c #A81D1D",
"u.	c #1D1515",
"v.	c #3D1212",
"w.	c #D23939",
"x.	c #662222",
"y.	c #140707",
"z.	c #B53E3E",
"A.	c #DD1F1F",
"B.	c #D92121",
"C.	c #2C0A0A",
"D.	c #380909",
"E.	c #EF2525",
"F.	c #D63838",
"G.	c #6E2525",
"H.	c #070202",
"I.	c #752727",
"J.	c #D34747",
"K.	c #D73434",
"L.	c #E52121",
"M.	c #F72828",
"N.	c #550D0D",
"O.	c #DC2222",
"P.	c #DC2020",
"Q.	c #D33C3C",
"R.	c #441717",
"S.	c #280D0D",
"T.	c #B13B3B",
"U.	c #D73D3D",
"V.	c #D72A2A",
"W.	c #E92222",
"X.	c #5E0E0E",
"Y.	c #080101",
"Z.	c #B41B1B",
"`.	c #DE2121",
" +	c #6F2626",
".+	c #0B0707",
"++	c #D74949",
"@+	c #E42323",
"#+	c #280606",
"$+	c #020000",
"%+	c #B31B1B",
"&+	c #DB2424",
"*+	c #D53A3A",
"=+	c #5F2020",
"-+	c #010000",
";+	c #5B1F1F",
">+	c #E32323",
",+	c #1C0404",
"'+	c #761111",
")+	c #D82323",
"!+	c #D74444",
"~+	c #B13D3D",
"{+	c #C31E1E",
"]+	c #881414",
"^+	c #D82121",
"/+	c #BC3939",
"(+	c #401616",
"_+	c #451818",
":+	c #9E3232",
"<+	c #D62E2E",
"[+	c #F12525",
"}+	c #A31919",
"|+	c #450A0A",
"1+	c #DA2525",
"2+	c #B23434",
"3+	c #381313",
"4+	c #AF3535",
"5+	c #E32D2D",
"6+	c #5E0F0F",
"7+	c #140303",
"8+	c #BC2525",
"9+	c #802828",
"0+	c #030101",
"a+	c #681616",
"b+	c #CB1D1D",
"c+	c #220505",
"d+	c #6C2020",
"e+	c #511B1B",
"f+	c #161616",
"g+	c #120303",
"                                                      . .       ",
"                                                  + @ #         ",
"                                                $ % & *         ",
"                                              = - ; >           ",
"                                            , ' ) ! ~           ",
"  { ] ^                                   / ( _ : <             ",
"  [ } | 1 2                             . 3 4 5 6 7             ",
"  8 9 0 a b c d                       . e 4 f g h {             ",
"    i j k l m n = .                 o p q r s t u               ",
"      v w x y z A B C .           D E 4 F G H I J               ",
"        K L M N O 4 q P Q       R S T U V W X Y                 ",
"          Z `  ...+.@.4 #.$.. . %.U &.*.=.-.;.                  ",
"              >.,.'.).!.O 4 ~.{.U q ].^./.(.                    ",
"                _.:.<.V ).: [.}.|.y 1./.2.                      ",
"                    R 3.4.).).: *.6 5.6.                        ",
"                      7.8.).).).).9.0.{                         ",
"                      a.b.c.).).).G d.e.f..                     ",
"                    g.h.i.s ^.^.j.).).k.l.m..                   ",
"                  . n.o.).^.p.q./.r.s ).V s.t.u.                ",
"                . v.w.s r.x.. . y.z.9.j.).).A.B.C.              ",
"              . D.E.].F.G..       H.I.J.K.).).L.M.N.            ",
"            . c O.P.Q.R..           { S.T.U.V.).W.) X..         ",
"            Y.Z.`.9. +.                 .+e.++1.).f @+#+        ",
"          $+%+&+*+=+-+                    . ;+++9.s +.>+,+      ",
"        . '+)+!+m.{                           q.~+d.V F {+i     ",
"      . ]+^+/+(+o                               7._+:+<+[+}+$+  ",
"      |+1+2+y.2                                     . 3+4+5+6+. ",
"    7+8+9+0+.                                           .+a+b+c+",
"  . d+e+{ .                                               f+g+7+",
"  . . .                                                         ",
"                                                                ",
"                                                                "};
