/* XPM */
static char * fuse_xpm[] = {
"32 32 119 2",
"  	c None",
". 	c #797979",
"+ 	c #A2A2A2",
"@ 	c #5F5F5F",
"# 	c #777777",
"$ 	c #C2C2C2",
"% 	c #D7D7D7",
"& 	c #454545",
"* 	c #7A7A7A",
"= 	c #C3C3C3",
"- 	c #D1D1D1",
"; 	c #7F7F7F",
"> 	c #363636",
", 	c #747474",
"' 	c #949494",
") 	c #B3B3B3",
"! 	c #CACACA",
"~ 	c #CCCCCC",
"{ 	c #B5B5B5",
"] 	c #9B9B9B",
"^ 	c #787878",
"/ 	c #464646",
"( 	c #7C7C7C",
"_ 	c #C5C5C5",
": 	c #D5D5D5",
"< 	c #6E6E6E",
"[ 	c #D4D4D4",
"} 	c #929292",
"| 	c #414141",
"1 	c #888888",
"2 	c #C7C7C7",
"3 	c #8B8B8B",
"4 	c #A8A8A8",
"5 	c #D6D6D6",
"6 	c #A7A7A7",
"7 	c #686868",
"8 	c #B2B2B2",
"9 	c #BFBFBF",
"0 	c #424242",
"a 	c #D3D3D3",
"b 	c #D2D2D2",
"c 	c #8C8C8C",
"d 	c #757575",
"e 	c #CDCDCD",
"f 	c #999999",
"g 	c #606060",
"h 	c #A1A1A1",
"i 	c #858585",
"j 	c #CECECE",
"k 	c #818181",
"l 	c #BABABA",
"m 	c #878787",
"n 	c #666666",
"o 	c #BBBBBB",
"p 	c #767676",
"q 	c #737373",
"r 	c #C6C6C6",
"s 	c #5A5A5A",
"t 	c #B4B4B4",
"u 	c #7B7B7B",
"v 	c #C1C1C1",
"w 	c #A4A4A4",
"x 	c #6F6F6F",
"y 	c #939393",
"z 	c #656565",
"A 	c #BEBEBE",
"B 	c #6B6B6B",
"C 	c #8E8E8E",
"D 	c #ADADAD",
"E 	c #C4C4C4",
"F 	c #CBCBCB",
"G 	c #C8C8C8",
"H 	c #9D9D9D",
"I 	c #646464",
"J 	c #B1B1B1",
"K 	c #BCBCBC",
"L 	c #E0E0E0",
"M 	c #848484",
"N 	c #D9D9D9",
"O 	c #BDBDBD",
"P 	c #A9A9A9",
"Q 	c #A3A3A3",
"R 	c #AAAAAA",
"S 	c #C9C9C9",
"T 	c #E3E3E3",
"U 	c #EAEAEA",
"V 	c #DCDCDC",
"W 	c #B8B8B8",
"X 	c #6A6A6A",
"Y 	c #E2E2E2",
"Z 	c #EEEEEE",
"` 	c #F7F7F7",
" .	c #FDFDFD",
"..	c #FFFFFF",
"+.	c #FBFBFB",
"@.	c #F5F5F5",
"#.	c #9F9F9F",
"$.	c #9E9E9E",
"%.	c #979797",
"&.	c #AEAEAE",
"*.	c #898989",
"=.	c #383838",
"-.	c #4E4E4E",
";.	c #989898",
">.	c #DFDFDF",
",.	c #838383",
"'.	c #727272",
").	c #5C5C5C",
"!.	c #ABABAB",
"~.	c #636363",
"{.	c #3A3A3A",
"].	c #8A8A8A",
"^.	c #B6B6B6",
"/.	c #DDDDDD",
"(.	c #545454",
"_.	c #3F3F3F",
":.	c #404040",
"<.	c #707070",
"[.	c #575757",
"                                                                ",
"                                                                ",
"                                                                ",
"                                                                ",
"                      . + @                                     ",
"                  # $ % % % + &                                 ",
"              * = % % % % % % - ; >   , ' ) ! ~ { ] ^ /         ",
"          ( _ % % % % % % % % : ( ; < ' [ % % % % % % - } |     ",
"      1 2 % % % % % % % % % % 3 4 % 5 6 7 8 % % % % % % % 9 0   ",
"  | 2 % % % % % % % % % % % a # % % % % b c d e % % % % % % 1   ",
"  f g h % % % % % % % % % % [ i % % % % j k d ! % % % % % % ]   ",
"  8 l m n o % % % % % % % % % p 9 % 2 ; q $ % % % % % % % r s   ",
"  8 o o t < u ~ % % % % % % % b 7 , d v % % % % % % % 5 w x y   ",
"  8 o o o o w z ' : % % % % A ^ i B ^ C D E F F G D C ^ f = H   ",
"  8 o o o o o o C I J % K p 1 [ L M [ N O P Q 4 R S T U V r H   ",
"  8 o o o o o o o W p X 3 5 L L L M [ Y Z `  .....+.@.U V r H   ",
"  8 o o o o o o o o o ] L L L L L M [ Y Z `  .....+.@.U V r H   ",
"  8 o o o o o o o o o ] L L L L L M [ Y Z `  .....+.@.U V r #.  ",
"  8 o o o o o o o o o ] L L L L L M [ Y Z `  .....+.@.U V r $.  ",
"  8 o o o o o o o o o ] L L L L L M [ Y Z `  .....+.@.U V r H   ",
"  8 o o o o o o o o o ] L L L L L M [ Y Z `  .....+.@.U V r $.  ",
"  8 o o o o o o o o o ] L L L L L M [ Y Z `  .....+.@.U V r +   ",
"  %.o o o o o o o o o ] L L L L L M [ Y Z `  .....+.@.U V r w   ",
"    X &.o o o o o o o ] L L L L L M [ Y Z `  .....+.@.U V r *.  ",
"      =.( W o o o o o ] L L L L L M [ Y Z `  .....+.@.U V = s   ",
"          -.;.o o o o ] L L L L >.,.[ Y Z `  .....+.@.U a '.    ",
"              ).!.o o ] L L >.D ~.{.( K Z `  .....+.V ].).      ",
"                  d ^.] /.h (.              3 C m _.            ",
"                    :.<.[.                                      ",
"                                                                ",
"                                                                ",
"                                                                "};
