/* XPM */
static char * lines_xpm[] = {
"32 32 160 2",
"  	c None",
". 	c #4B0000",
"+ 	c #8E0000",
"@ 	c #660000",
"# 	c #050000",
"$ 	c #5A0000",
"% 	c #EA0000",
"& 	c #D10000",
"* 	c #3E0000",
"= 	c #B60000",
"- 	c #13110C",
"; 	c #350000",
"> 	c #E50000",
", 	c #CA0000",
"' 	c #773434",
") 	c #E80000",
"! 	c #BA0000",
"~ 	c #B8A579",
"{ 	c #2D291E",
"] 	c #670000",
"^ 	c #F00000",
"/ 	c #B20000",
"( 	c #895E5E",
"_ 	c #F93434",
": 	c #F80000",
"< 	c #BD0302",
"[ 	c #C1AD80",
"} 	c #6F634A",
"| 	c #5C0000",
"1 	c #AE0000",
"2 	c #564949",
"3 	c #F35252",
"4 	c #880000",
"5 	c #C6B184",
"6 	c #7C6F52",
"7 	c #3D0000",
"8 	c #E30000",
"9 	c #5C5858",
"0 	c #CD4040",
"a 	c #000000",
"b 	c #AB9972",
"c 	c #201D16",
"d 	c #040404",
"e 	c #2E0000",
"f 	c #D90000",
"g 	c #E10000",
"h 	c #1F0000",
"i 	c #B51E1E",
"j 	c #E20000",
"k 	c #D50000",
"l 	c #270000",
"m 	c #B60808",
"n 	c #F93131",
"o 	c #CF0000",
"p 	c #170000",
"q 	c #520000",
"r 	c #E40000",
"s 	c #BE0000",
"t 	c #785151",
"u 	c #BD0404",
"v 	c #FB7E7E",
"w 	c #F81111",
"x 	c #D80000",
"y 	c #150000",
"z 	c #0D0D0A",
"A 	c #360000",
"B 	c #D40000",
"C 	c #6C5353",
"D 	c #ED8A8A",
"E 	c #F93737",
"F 	c #100000",
"G 	c #0F0F0B",
"H 	c #B10000",
"I 	c #080000",
"J 	c #BF2323",
"K 	c #FED0D0",
"L 	c #FB6262",
"M 	c #EB0000",
"N 	c #250000",
"O 	c #B90000",
"P 	c #2D1E1E",
"Q 	c #AB3F3F",
"R 	c #FB7979",
"S 	c #FA4444",
"T 	c #CE0000",
"U 	c #220000",
"V 	c #AC0000",
"W 	c #C60000",
"X 	c #361313",
"Y 	c #D37F7F",
"Z 	c #F92929",
"` 	c #F80101",
" .	c #694E4E",
"..	c #BA7C7C",
"+.	c #FA3C3C",
"@.	c #FA3A3A",
"#.	c #460000",
"$.	c #9C0000",
"%.	c #5E5656",
"&.	c #E5ACAC",
"*.	c #780000",
"=.	c #8A0000",
"-.	c #350707",
";.	c #836E6E",
">.	c #FA5858",
",.	c #FA5353",
"'.	c #740000",
").	c #603939",
"!.	c #BE9C9C",
"~.	c #FC9999",
"{.	c #FA5A5A",
"].	c #610000",
"^.	c #380000",
"/.	c #700404",
"(.	c #BFBCBC",
"_.	c #F58080",
":.	c #FC8A8A",
"<.	c #FA3F3F",
"[.	c #8C0000",
"}.	c #4E0000",
"|.	c #574747",
"1.	c #FCA7A7",
"2.	c #FC8989",
"3.	c #F91818",
"4.	c #1B0605",
"5.	c #653828",
"6.	c #6E6348",
"7.	c #CEA7A7",
"8.	c #FDC3C3",
"9.	c #F93838",
"0.	c #040000",
"a.	c #978863",
"b.	c #D9C390",
"c.	c #C8B484",
"d.	c #5A423C",
"e.	c #EA3131",
"f.	c #27241A",
"g.	c #D9C38F",
"h.	c #D6C08F",
"i.	c #B8A679",
"j.	c #8A7C5A",
"k.	c #1C1912",
"l.	c #74684D",
"m.	c #D4BE8F",
"n.	c #D7C18F",
"o.	c #D2BC8E",
"p.	c #DCC690",
"q.	c #373224",
"r.	c #070605",
"s.	c #8C7D5D",
"t.	c #D8C28F",
"u.	c #B9A67B",
"v.	c #776B4F",
"w.	c #2A2822",
"x.	c #7F7256",
"y.	c #7E7153",
"z.	c #6A5F45",
"A.	c #5A513B",
"B.	c #050505",
"C.	c #1C1C1C",
"                                        . + @ #                 ",
"                                      $ % & * = -               ",
"                                    ; > , ' ) ! ~ {             ",
"                                  ] ^ / ( _ : < [ }             ",
"                                | ^ 1 2 3 : : 4 5 6             ",
"                              7 8 1 9 0 : : 4 a b c   a d       ",
"                            e f g h i : : 1 a a a   a a         ",
"                          . j k l m n : o p a a     a a         ",
"                        q r s t u v w x y z a     a a           ",
"                      A B / C D E : x F z G       a a           ",
"                      H ! I J K L M N a a       a a             ",
"                  ; O , P Q R S T U a a         a a             ",
"                  V W X Y Z ` ) h a a a       a a               ",
"                = g  ...+.@.: #.a a a         a a               ",
"              $.! %.&.+.: : *.a a a           a                 ",
"            =.) -.;.>.,.: '.a a a           a a                 ",
"          $ ) ).!.~.{.: ].a a a             a                   ",
"        ^.8 /.(._.:.<.[.a a a             a a                   ",
"      U f }.|.1.2.3.[.a a a               a a                   ",
"      4.5.6.7.8.9.*.0.a a                 a                     ",
"      a.b.c.d.e.1 a a a                 a a                     ",
"    f.g.h.b.i.j.k.a a                   a                       ",
"    l.m.n.o.h.p.q.r.                  a a                       ",
"    s.b.m.m.t.u.v.                    a a                       ",
"    w.x.y.z.A.                      a a                         ",
"  B.C.                            a a                           ",
"  a a                           a a                             ",
"    a a                       a a                               ",
"      a a a               a a a                                 ",
"        a a a a a a a a a a                                     ",
"                                                                ",
"                                                                "};
