/* XPM */
static char * mag_xpm[] = {
"32 32 87 1",
" 	c None",
".	c #B4B4B4",
"+	c #989898",
"@	c #9E9E9E",
"#	c #7F7F7F",
"$	c #ABABAB",
"%	c #A4A4A4",
"&	c #747473",
"*	c #9B9272",
"=	c #A09056",
"-	c #887A49",
";	c #B4A261",
">	c #AD9B5D",
",	c #998A54",
"'	c #9C957E",
")	c #B6A466",
"!	c #A19568",
"~	c #8B8B8B",
"{	c #9F9987",
"]	c #A79761",
"^	c #AB9D6E",
"/	c #B6A465",
"(	c #9B947A",
"_	c #A69B71",
":	c #B5A466",
"<	c #A79862",
"[	c #9A9171",
"}	c #A59661",
"|	c #9D936D",
"1	c #9F9B8A",
"2	c #B2A060",
"3	c #B6A362",
"4	c #9B906C",
"5	c #9C9067",
"6	c #AE9C5E",
"7	c #9C9888",
"8	c #B9B9B9",
"9	c #999999",
"0	c #9B9B9B",
"a	c #6E633B",
"b	c #6D664D",
"c	c #848484",
"d	c #A89860",
"e	c #9B9377",
"f	c #9C8C54",
"g	c #9A906E",
"h	c #9B906A",
"i	c #9B9069",
"j	c #B6A462",
"k	c #9D9A90",
"l	c #9E9B8F",
"m	c #C1AD68",
"n	c #D7C174",
"o	c #988A59",
"p	c #A99962",
"q	c #A1966F",
"r	c #A29361",
"s	c #CEB96F",
"t	c #9C9374",
"u	c #C1AD69",
"v	c #A39978",
"w	c #9C957C",
"x	c #D6C174",
"y	c #AD9D66",
"z	c #BCAA68",
"A	c #9E9161",
"B	c #9A8E65",
"C	c #AF9E62",
"D	c #B7A566",
"E	c #C7B36C",
"F	c #9B9273",
"G	c #9B9376",
"H	c #AF9D5E",
"I	c #B4A161",
"J	c #AB9A5D",
"K	c #9A916F",
"L	c #9D936C",
"M	c #C6B16B",
"N	c #AE9E67",
"O	c #B1A16A",
"P	c #D6C073",
"Q	c #B7A669",
"R	c #9C9476",
"S	c #CCB76E",
"T	c #C9B56D",
"U	c #ABA697",
"V	c #A9A69D",
"                                ",
" .+@@@@@@@@@@@@@#               ",
" $              %               ",
" $              %               ",
" $              %               ",
" $              %               ",
" $              %               ",
" $              %               ",
" $              %               ",
" $              &               ",
" $            *=-;>,'           ",
" $           )! ~  {]^          ",
" $          /(  %    _:         ",
" $         <[   %     }|        ",
" $        12    %      3        ",
" $        45    %      67       ",
" 89@@@@@@0ab@@@@c      de       ",
"          fg           ]e       ",
"          hi           jk       ",
"          lm           no       ",
"           pq         rnnst     ",
"            uv       wxnnnny    ",
"             zA     BCDnnnnnEF  ",
"              GHI6jJK  LMnnnnnN ",
"                         OPnnnQ ",
"                          RSnTU ",
"                           VdF  ",
"                                ",
"                                ",
"                                ",
"                                ",
"                                "};
