/* XPM */
static char * open_xpm[] = {
"32 32 430 2",
"  	c None",
". 	c #295193",
"+ 	c #325996",
"@ 	c #385E98",
"# 	c #2F5488",
"$ 	c #274C84",
"% 	c #597BA3",
"& 	c #98B2B9",
"* 	c #97B0B8",
"= 	c #96B0B8",
"- 	c #2A4F86",
"; 	c #264B84",
"> 	c #264C85",
", 	c #214279",
"' 	c #22447B",
") 	c #24457C",
"! 	c #284F8F",
"~ 	c #294E87",
"{ 	c #819EB0",
"] 	c #D6E7D3",
"^ 	c #92ACB6",
"/ 	c #274D86",
"( 	c #5E85C5",
"_ 	c #6E96D8",
": 	c #6C94D6",
"< 	c #648CCC",
"[ 	c #5176B3",
"} 	c #4169AB",
"| 	c #2B508A",
"1 	c #C9DBD2",
"2 	c #D3E3DC",
"3 	c #D3E3DE",
"4 	c #C4D6DA",
"5 	c #416492",
"6 	c #4369A5",
"7 	c #2D538D",
"8 	c #2A5394",
"9 	c #295291",
"0 	c #274C86",
"a 	c #2D538C",
"b 	c #BEE08E",
"c 	c #D6E6E0",
"d 	c #9DB6BA",
"e 	c #274C85",
"f 	c #284E8C",
"g 	c #6D95D7",
"h 	c #315792",
"i 	c #2C518A",
"j 	c #284D85",
"k 	c #2C528B",
"l 	c #4A75B8",
"m 	c #345DA1",
"n 	c #29508D",
"o 	c #5A7C97",
"p 	c #C8E1B5",
"q 	c #D1E1E0",
"r 	c #CEDCF1",
"s 	c #607EAE",
"t 	c #3E5F94",
"u 	c #24477E",
"v 	c #6C95D7",
"w 	c #6992D5",
"x 	c #6D96D8",
"y 	c #6993D6",
"z 	c #3D65A4",
"A 	c #285091",
"B 	c #709298",
"C 	c #C9E0BF",
"D 	c #CEDEDF",
"E 	c #3A5C90",
"F 	c #254981",
"G 	c #1F4178",
"H 	c #1E3F76",
"I 	c #1F4078",
"J 	c #6B94D7",
"K 	c #6A93D6",
"L 	c #537EC3",
"M 	c #285093",
"N 	c #5B8093",
"O 	c #D0E2D5",
"P 	c #CEDDED",
"Q 	c #5773A1",
"R 	c #23467D",
"S 	c #89A4D1",
"T 	c #8DA8D4",
"U 	c #87A3CF",
"V 	c #6C95D8",
"W 	c #6C96D8",
"X 	c #628BCD",
"Y 	c #5F8591",
"Z 	c #CDE1C9",
"` 	c #D0DFE7",
" .	c #7088B1",
"..	c #36568C",
"+.	c #9BB5E0",
"@.	c #6B94D6",
"#.	c #6B93D5",
"$.	c #6A92D4",
"%.	c #6991D4",
"&.	c #5F87C9",
"*.	c #5E868A",
"=.	c #D1E1DD",
"-.	c #788FB6",
";.	c #91ABD7",
">.	c #9AB4DF",
",.	c #7390BF",
"'.	c #2A4C84",
").	c #294C84",
"!.	c #294B83",
"~.	c #2B4E89",
"{.	c #2B4F8B",
"].	c #2C508C",
"^.	c #2D528D",
"/.	c #24467E",
"(.	c #294C89",
"_.	c #274D91",
":.	c #5D8283",
"<.	c #BED6B2",
"[.	c #D0DBF8",
"}.	c #778CBA",
"|.	c #1D3D79",
"1.	c #22437A",
"2.	c #3A5A8E",
"3.	c #224379",
"4.	c #204178",
"5.	c #204177",
"6.	c #1F4077",
"7.	c #234D91",
"8.	c #3161B1",
"9.	c #658CCD",
"0.	c #294A80",
"a.	c #305084",
"b.	c #315084",
"c.	c #315187",
"d.	c #284D84",
"e.	c #284E82",
"f.	c #2B5182",
"g.	c #284E83",
"h.	c #356284",
"i.	c #74A471",
"j.	c #99EA51",
"k.	c #A3E36C",
"l.	c #C1E0C9",
"m.	c #81A69C",
"n.	c #335B79",
"o.	c #325781",
"p.	c #345589",
"q.	c #2C4E84",
"r.	c #21437B",
"s.	c #385789",
"t.	c #4B6693",
"u.	c #4368A5",
"v.	c #6C94D5",
"w.	c #28497F",
"x.	c #6888BE",
"y.	c #86A2CE",
"z.	c #8DA6D0",
"A.	c #90A8D1",
"B.	c #90A8D0",
"C.	c #375B8F",
"D.	c #5C9676",
"E.	c #90DC56",
"F.	c #A4E76D",
"G.	c #99E952",
"H.	c #9DE860",
"I.	c #98E952",
"J.	c #5A936B",
"K.	c #5E878E",
"L.	c #6B86B0",
"M.	c #34568B",
"N.	c #2F5288",
"O.	c #A8BBD9",
"P.	c #C7D1E3",
"Q.	c #BCCDE9",
"R.	c #6087C7",
"S.	c #214278",
"T.	c #486BA6",
"U.	c #7E9BCF",
"V.	c #A4BEE9",
"W.	c #ACC4EB",
"X.	c #B1C7ED",
"Y.	c #AFC5EB",
"Z.	c #A7BFE7",
"`.	c #406C80",
" +	c #87CE65",
".+	c #98EA51",
"++	c #99EA52",
"@+	c #ADE68B",
"#+	c #C3E3C6",
"$+	c #A0B3D2",
"%+	c #768FB7",
"&+	c #D4E1F6",
"*+	c #DCE7F7",
"=+	c #C5D4EE",
"-+	c #2D5BA9",
";+	c #6991D3",
">+	c #678FD3",
",+	c #24457D",
"'+	c #5175B0",
")+	c #88A6D8",
"!+	c #9CB7E5",
"~+	c #A2BCE6",
"{+	c #A8C0E7",
"]+	c #ADC3E9",
"^+	c #8BA6D1",
"/+	c #2E5387",
"(+	c #74B469",
"_+	c #62819D",
":+	c #9EAFCC",
"<+	c #D2DFF4",
"[+	c #C3D0E5",
"}+	c #CCDAF2",
"|+	c #7696CB",
"1+	c #2D5BA8",
"2+	c #678FD1",
"3+	c #476FB3",
"4+	c #25467D",
"5+	c #7493C7",
"6+	c #94B2E2",
"7+	c #96B3E3",
"8+	c #9DB8E5",
"9+	c #A2BBE6",
"0+	c #B0C6EC",
"a+	c #5F7EAE",
"b+	c #315689",
"c+	c #3C6585",
"d+	c #81C760",
"e+	c #A1E966",
"f+	c #718AB7",
"g+	c #31548A",
"h+	c #99ABCA",
"i+	c #CEDBF1",
"j+	c #CEDBF0",
"k+	c #D4E0F4",
"l+	c #CFDDF3",
"m+	c #6890D1",
"n+	c #2B4E88",
"o+	c #4D71AC",
"p+	c #8BA9DB",
"q+	c #89ABE0",
"r+	c #8FAFE1",
"s+	c #96B3E4",
"t+	c #9DB7E5",
"u+	c #A3BCE6",
"v+	c #A9C0E7",
"w+	c #ABC2E9",
"x+	c #A6BEE6",
"y+	c #9FB8E0",
"z+	c #294E85",
"A+	c #2D5284",
"B+	c #7ABF64",
"C+	c #88A8AA",
"D+	c #657EA6",
"E+	c #D3E0F5",
"F+	c #D4E1F4",
"G+	c #E7EFFA",
"H+	c #CDDBF2",
"I+	c #C7D6EF",
"J+	c #3360AC",
"K+	c #30528B",
"L+	c #6D95D6",
"M+	c #5E85C4",
"N+	c #395F9C",
"O+	c #648AC8",
"P+	c #7FA1DC",
"Q+	c #84A6DF",
"R+	c #89AAE0",
"S+	c #8FAEE2",
"T+	c #97B3E4",
"U+	c #9EB8E5",
"V+	c #A9C0E8",
"W+	c #A8BFE7",
"X+	c #89A6CF",
"Y+	c #2B5085",
"Z+	c #345C84",
"`+	c #92DE59",
" @	c #5E7AA9",
".@	c #305389",
"+@	c #486594",
"@@	c #CFDCF2",
"#@	c #E5EDF9",
"$@	c #E2EBF8",
"%@	c #CBD9F1",
"&@	c #597FBC",
"*@	c #254780",
"=@	c #4369A7",
"-@	c #729ADA",
";@	c #7DA1DD",
">@	c #83A5DF",
",@	c #90AFE2",
"'@	c #A3BDE6",
")@	c #8BA8D0",
"!@	c #2C5185",
"~@	c #335B84",
"{@	c #456C8B",
"]@	c #284C84",
"^@	c #8EA4C6",
"/@	c #C5D3EA",
"(@	c #DAE5F7",
"_@	c #E4ECF8",
":@	c #DEE7F6",
"<@	c #C4D4EE",
"[@	c #305EAA",
"}@	c #456AA6",
"|@	c #274982",
"1@	c #4D74B2",
"2@	c #7098D9",
"3@	c #6F97D9",
"4@	c #779DDB",
"5@	c #7EA2DD",
"6@	c #85A7DF",
"7@	c #8AABE0",
"8@	c #98B4E4",
"9@	c #9FB9E5",
"0@	c #A4BDE6",
"a@	c #AAC1E8",
"b@	c #708FB7",
"c@	c #2B5186",
"d@	c #284E84",
"e@	c #7B91B7",
"f@	c #D4E1F5",
"g@	c #DCE6F6",
"h@	c #E0EAF8",
"i@	c #D0DDF3",
"j@	c #A7BCE0",
"k@	c #2E5DAB",
"l@	c #2F518A",
"m@	c #26477F",
"n@	c #23467F",
"o@	c #3760A1",
"p@	c #6088CA",
"q@	c #6690D6",
"r@	c #6C94D8",
"s@	c #789EDB",
"t@	c #91B0E2",
"u@	c #A5BDE5",
"v@	c #708EBD",
"w@	c #B3C5E4",
"x@	c #D6E1F5",
"y@	c #D1DFF4",
"z@	c #D2DEF4",
"A@	c #D7E2F5",
"B@	c #D7E3F5",
"C@	c #C6D5EF",
"D@	c #3C67B0",
"E@	c #305DA5",
"F@	c #406DB6",
"G@	c #5784CE",
"H@	c #5480CB",
"I@	c #658FD4",
"J@	c #ABC2E8",
"K@	c #BFD0EE",
"L@	c #D1DDF3",
"M@	c #B8CCEC",
"N@	c #3965AF",
"O@	c #355EA1",
"P@	c #436FB9",
"Q@	c #4876C3",
"R@	c #4A77C2",
"S@	c #5480CA",
"T@	c #6B93D7",
"U@	c #6D94D8",
"V@	c #769CDA",
"W@	c #7FA3DD",
"X@	c #8DACE0",
"Y@	c #92B1E2",
"Z@	c #99B5E4",
"`@	c #9BB6E4",
" #	c #A5BEE6",
".#	c #D3DFF4",
"+#	c #527ABC",
"@#	c #32599A",
"##	c #355D9F",
"$#	c #3864AC",
"%#	c #4A77C3",
"&#	c #4775C1",
"*#	c #5984CC",
"=#	c #638DD2",
"-#	c #6F96D8",
";#	c #749BDA",
">#	c #769CDB",
",#	c #92B0E2",
"'#	c #98B4E3",
")#	c #B1C7EB",
"!#	c #B9CEEE",
"~#	c #C5D6F1",
"{#	c #B6C9E8",
"]#	c #2F5DAA",
"^#	c #2B518F",
"/#	c #3963A7",
"(#	c #4875C1",
"_#	c #4876C1",
":#	c #4E7BC5",
"<#	c #5D87CD",
"[#	c #94B1E2",
"}#	c #97B3E3",
"|#	c #BDD1F0",
"1#	c #ACC1E2",
"2#	c #A5BADB",
"3#	c #486FB1",
"4#	c #264C89",
"5#	c #2E5595",
"6#	c #2F5594",
"7#	c #315899",
"8#	c #2D5391",
"9#	c #3D68AE",
"0#	c #4674C0",
"a#	c #4774BF",
"b#	c #6C92D0",
"c#	c #7197D5",
"d#	c #7498D3",
"e#	c #A1B7DB",
"f#	c #A3BAE0",
"g#	c #A7BDE3",
"h#	c #A5BDE3",
"i#	c #A3BBE0",
"j#	c #A1B8DB",
"k#	c #A2B8DB",
"l#	c #6B85B1",
"m#	c #426091",
"n#	c #2E5391",
"o#	c #254B89",
"p#	c #274D8B",
"q#	c #234781",
"r#	c #274B85",
"s#	c #274A85",
"t#	c #264A85",
"u#	c #1E4077",
"v#	c #1E3F77",
"w#	c #264E90",
"                                                                ",
"                                                                ",
"                                                                ",
"                                                                ",
"                      . . . + @ @ @ # $                         ",
"                        . . % & * = - ; >                       ",
", , ' ) ) ) ) ) ) )       ! ~ { ] ] ^ ~ / $                     ",
", ( _ : _ < < < [ $ }       | $ 1 2 3 4 5 $                     ",
", ( _ _ _ _ _ _ _ 6 7 8 9 $ ! 0 a b 3 c d e f                   ",
", _ _ _ _ _ _ _ _ g h i j k l m n o p q r s t u ,               ",
", _ _ _ _ _ _ _ _ v w x x x x y z A B C r D E F G H I ,         ",
", _ _ _ _ _ _ _ _ v J K K K y v L M N O P r Q R S T U ,         ",
", _ _ _ x x x x x x x x V W x x X . Y Z ` r  ...+.+.+.,         ",
", _ _ _ g v v @.v @.: #.@.$.%.x &.. *.3 =.r -., ;.>.,., ,       ",
", _ _ _ : $.'.) ).!.).~.{.].^./.(._.:.3 <.[.}.|.1.2.3.4.5.6.7.8.",
", _ _ _ : 9.3.0.a.b.b.c.d.$ e.f.g.h.i.j.k.l.m.n.o.p.q.r.s.t.u.8.",
", _ _ _ v.'.w.x.y.z.A.B.C.d.D.E.j.j.j.F.G.H.I.J.K.L.M.N.O.P.Q.8.",
", _ _ _ R.S.T.U.V.W.X.Y.Z.$ `. +j.j.j.j.j..+++@+#+$+$ %+&+*+=+-+",
", _ ;+>+,+S.'+)+!+~+{+]+Z.^+/+$ (+j.++++j.j.#+#+_+$ :+<+[+}+|+1+",
", #.2+3+, 4+5+6+7+8+9+{+0+Z.a+b+c+d+j.j.++e+#+f+g+h+i+j+k+l+1+8.",
", _ m+n+, o+p+q+r+s+t+u+v+w+x+y+z+A+B+j.j.#+C+$ D+E+F+G+H+I+J+  ",
"K+L+M+, N+O+P+Q+R+S+T+U+u+V+W+Z.X+Y+Z+`+#+ @.@+@@@&+#@$@%@&@1+  ",
"K+$., *@=@x -@;@>@q+,@T+t+'@Z.v+Z.)@!@~@{@]@^@/@E+(@_@:@<@[@    ",
"K+}@, |@1@2@3@4@5@6@7@,@8@9@0@a@Z.Z.b@c@d@e@&+&+f@g@h@i@j@k@    ",
"l@m@n@o@p@q@r@3@s@5@Q+7@t@8@U+0@Z.W+u@v@w@x@l+y@z@A@B@C@D@      ",
", , E@F@G@H@I@r@_ 4@5@6@7@,@8@9@0@a@W+J@K@L@L@A@}+<+H+M@N@      ",
", , O@P@Q@R@S@T@r@U@V@W@6@X@Y@Z@`@ #W+Z.v+Z.A@.#%@H+%@+#1+      ",
"S.@###$#%#&#&#*#=#_ -#;#>#,#7+7+'#Z@x+Z.Z.)#!#l+~#~#{#]#        ",
"^#######/#&#(#&#_#:#<#V@V@V@[#}#Z@Z@Z.Z.Z.Z.Z.|#1#2#3#1+        ",
"4#5#6#7#8#9#&#&#&#0#a#b#c#c#c#d#p+e#f#g#h#i#j#k#l#m#n#o#        ",
"p#p#q#5.5.5.5.r#s#t#t#6.6.6.6.6.6.u#v#v#v#v#v#v#v#v#w#          ",
"                                                                "};
