/* XPM */
static char * tri_xpm[] = {
"32 30 3 1",
" 	c None",
".	c #000000",
"+	c #C5DC45",
"           ..                   ",
"           ..                   ",
"          .+..                  ",
"         ..++..                 ",
"         .++++.                 ",
"         .+++++.                ",
"        ..+++++..               ",
"        .+++++++.               ",
"       ..+++++++.               ",
"       .+++++++++.              ",
"      ..+++++++++..             ",
"      .+++++++++++..            ",
"     ..++++++++++++.            ",
"     .+++++++++++++..           ",
"    ..++++++++++++++.           ",
"    .++++++++++++++++.          ",
"   ..++++++++++++++++..         ",
"   .++++++++++++++++++..        ",
"  ..+++++++++++++++++++..       ",
"  .+++++++++++++++++++++.       ",
" ..++++++++++++++++++++++.      ",
" .+++++++++++++++++++++++..     ",
"....++++++++++++++++++++++.     ",
"    .......+++++++++++++++.     ",
"           .....+++++++++++.    ",
"               .......++++++.   ",
"                     .....++..  ",
"                          .++.  ",
"                           .... ",
"                              . "};
