/* XPM */
static char * undo_xpm[] = {
"32 32 84 1",
" 	c None",
".	c #434343",
"+	c #525252",
"@	c #314469",
"#	c #616161",
"$	c #404040",
"%	c #476AB0",
"&	c #455679",
"*	c #818181",
"=	c #3B4C6E",
"-	c #4371CF",
";	c #253C6B",
">	c #393939",
",	c #4D4D4D",
"'	c #516285",
")	c #415887",
"!	c #4B505D",
"~	c #3C3C3C",
"{	c #314877",
"]	c #2E3A51",
"^	c #4564A5",
"/	c #4872CA",
"(	c #304676",
"_	c #3E3E3E",
":	c #415D98",
"<	c #4466AD",
"[	c #2E3B55",
"}	c #3E4A63",
"|	c #373737",
"1	c #303642",
"2	c #4B6DB4",
"3	c #363636",
"4	c #374E7D",
"5	c #464646",
"6	c #313E57",
"7	c #3E5484",
"8	c #676767",
"9	c #425275",
"0	c #3F3F3F",
"a	c #384C74",
"b	c #3D434E",
"c	c #2C2C2C",
"d	c #445C8A",
"e	c #353A46",
"f	c #2F2F2F",
"g	c #4C6FB7",
"h	c #354C7B",
"i	c #747474",
"j	c #485F8E",
"k	c #343434",
"l	c #28406E",
"m	c #141414",
"n	c #223968",
"o	c #2A2A2A",
"p	c #364E7C",
"q	c #080808",
"r	c #546B9C",
"s	c #0E0E0E",
"t	c #48649E",
"u	c #31456E",
"v	c #3A3A3A",
"w	c #4668AF",
"x	c #3B3B3B",
"y	c #44619B",
"z	c #2C364A",
"A	c #2E3A53",
"B	c #3E5D9E",
"C	c #373D49",
"D	c #3D4960",
"E	c #374B74",
"F	c #344058",
"G	c #484848",
"H	c #2E3B54",
"I	c #4B72C4",
"J	c #252525",
"K	c #303C53",
"L	c #4672CC",
"M	c #303A50",
"N	c #333436",
"O	c #26334E",
"P	c #3E527C",
"Q	c #2B3956",
"R	c #36425A",
"S	c #2B364F",
"                                ",
"           .+                   ",
"           @#                   ",
"          $%&                   ",
"         *=-; >,')!~            ",
"         ~--{]^----/(>          ",
"        _:-----------<~         ",
"        [----/{}|~1^--2_        ",
"       3%----45     6--78       ",
"       =------90     a--b       ",
"      cddddddddef    _g-h       ",
"                     ij-2k      ",
"                      l--m      ",
"                      n--o      ",
"                      p--q      ",
"                      r--s      ",
"                     _--t       ",
"                     (--u       ",
"                    vw--x       ",
"                    p--y        ",
"                   z---A        ",
"                   %--^3        ",
"                  B---C         ",
"                 D---E          ",
"                F---<G          ",
"               H---IJ           ",
"              KI--LM            ",
"             N----O             ",
"              P--Q              ",
"               RS               ",
"               i                ",
"                                "};
