/* XPM */
static char * viewing_xpm[] = {
"32 30 22 1",
" 	c None",
".	c #000000",
"+	c #FFFFFF",
"@	c #464646",
"#	c #A9A9A9",
"$	c #0D0D0D",
"%	c #0A0A0A",
"&	c #FCFCFC",
"*	c #6B6B6B",
"=	c #535353",
"-	c #1F1F1F",
";	c #EBEBEB",
">	c #1A1A1A",
",	c #919191",
"'	c #FBFBFB",
")	c #323232",
"!	c #737373",
"~	c #CDCDCD",
"{	c #101010",
"]	c #404040",
"^	c #7D7D7D",
"/	c #808080",
"      ...                       ",
"      ....                      ",
"      .+..                      ",
"      .++@..                    ",
"      .+++#..                   ",
"      .+++++..                  ",
"      .++++++...                ",
"      .++++++++$.               ",
"      .+++++++++..              ",
"      .++++++++++%..            ",
"      .++++++++&++..            ",
"      .++++++.......            ",
"      .++++++*.                 ",
"      .++=.+++-.                ",
"      .++.. ++;..               ",
"      .+....+++>.               ",
"      ......,++'.               ",
"      ...   .)++!.              ",
"      ..    ..++~{.             ",
"             .]++^..            ",
"             .{/++..            ",
"              ..+++..           ",
"               ..+++..          ",
"                .~+...          ",
"                .....           ",
"                 ..             ",
"                                ",
"                                ",
"                                ",
"                                "};
