/* XPM */
static char * common_xpm[] = {
"32 32 41 1",
" 	c None",
".	c #5E5E5E",
"+	c #868686",
"@	c #404040",
"#	c #707070",
"$	c #D3D3D3",
"%	c #D7D7D7",
"&	c #C8C8C8",
"*	c #818181",
"=	c #C3C3C3",
"-	c #B6B6B6",
";	c #5A5A5A",
">	c #CDCDCD",
",	c #AAAAAA",
"'	c #6F6F6F",
")	c #595959",
"!	c #6E6E6E",
"~	c #D5D5D5",
"{	c #A2A2A2",
"]	c #9F9F9F",
"^	c #DFDFDF",
"/	c #979797",
"(	c #6C6C6C",
"_	c #666666",
":	c #A5A5A5",
"<	c #DDDDDD",
"[	c #E0E0E0",
"}	c #969696",
"|	c #8F8F8F",
"1	c #7E7E7E",
"2	c #DADADA",
"3	c #959595",
"4	c #7D7D7D",
"5	c #DCDCDC",
"6	c #989898",
"7	c #D6D6D6",
"8	c #8D8D8D",
"9	c #6A6A6A",
"0	c #D4D4D4",
"a	c #505050",
"b	c #848484",
"                                ",
"                                ",
"                                ",
"                                ",
"                                ",
"                                ",
"                                ",
"                .+@             ",
"               #$%&*            ",
"               =%%%%-;          ",
"               >%%%%,')         ",
"               !%~{']^/         ",
"               (_':<[[}         ",
"               |12[[[[3         ",
"               |45[[[[}         ",
"               |45[[[[/         ",
"               |45[[[[/         ",
"               |45[[[[6         ",
"               |45[[[[}         ",
"               |45[[[[}         ",
"               |45[[[[/         ",
"               |45[[[[/         ",
"               |45[[[[/         ",
"               |45[[78          ",
"               9450/            ",
"                ab@             ",
"                                ",
"                                ",
"                                ",
"                                ",
"                                ",
"                                "};
