/* XPM */
static char * cube_xpm[] = {
"32 32 92 2",
"  	c None",
". 	c #3C3C3C",
"+ 	c #585858",
"@ 	c #4F4F4F",
"# 	c #8F8F8F",
"$ 	c #C9C9C9",
"% 	c #C5C5C5",
"& 	c #BABABA",
"* 	c #A6A6A6",
"= 	c #909090",
"- 	c #696969",
"; 	c #656565",
"> 	c #6C6C6C",
", 	c #C8C8C8",
"' 	c #B3B3B3",
") 	c #9A9A9A",
"! 	c #828282",
"~ 	c #777777",
"{ 	c #606060",
"] 	c #303030",
"^ 	c #565656",
"/ 	c #C7C7C7",
"( 	c #C3C3C3",
"_ 	c #B6B6B6",
": 	c #949494",
"< 	c #787878",
"[ 	c #363636",
"} 	c #464646",
"| 	c #BBBBBB",
"1 	c #7B7B7B",
"2 	c #414141",
"3 	c #ADADAD",
"4 	c #666666",
"5 	c #757575",
"6 	c #999999",
"7 	c #A7A7A7",
"8 	c #7D7D7D",
"9 	c #BDBDBD",
"0 	c #4D4D4D",
"a 	c #A2A2A2",
"b 	c #A9A9A9",
"c 	c #7C7C7C",
"d 	c #939393",
"e 	c #B5B5B5",
"f 	c #C2C2C2",
"g 	c #575757",
"h 	c #959595",
"i 	c #F2F2F2",
"j 	c #CDCDCD",
"k 	c #ABABAB",
"l 	c #919191",
"m 	c #808080",
"n 	c #B2B2B2",
"o 	c #868686",
"p 	c #767676",
"q 	c #F8F8F8",
"r 	c #F5F5F5",
"s 	c #EAEAEA",
"t 	c #CBCBCB",
"u 	c #A8A8A8",
"v 	c #878787",
"w 	c #848484",
"x 	c #898989",
"y 	c #9E9E9E",
"z 	c #838383",
"A 	c #737373",
"B 	c #E2E2E2",
"C 	c #9C9C9C",
"D 	c #676767",
"E 	c #DEDEDE",
"F 	c #818181",
"G 	c #7F7F7F",
"H 	c #535353",
"I 	c #6D6D6D",
"J 	c #979797",
"K 	c #484848",
"L 	c #5F5F5F",
"M 	c #969696",
"N 	c #AEAEAE",
"O 	c #D0D0D0",
"P 	c #F1F1F1",
"Q 	c #A5A5A5",
"R 	c #555555",
"S 	c #5D5D5D",
"T 	c #6A6A6A",
"U 	c #858585",
"V 	c #EEEEEE",
"W 	c #494949",
"X 	c #888888",
"Y 	c #BFBFBF",
"Z 	c #434343",
"` 	c #747474",
"                                                                ",
"                                                                ",
"                    . + @                                       ",
"                    # $ % & * = - ;                             ",
"                  > , $ $ $ $ $ $ $ $ ' ) ! ~ { ]               ",
"                ^ / $ $ $ $ $ $ $ $ $ $ $ $ $ $ ( _ : < [       ",
"              } | $ $ $ $ $ $ $ $ $ $ $ $ $ $ $ $ $ $ 1 2       ",
"            ] 3 $ $ $ $ $ $ $ $ $ $ $ $ $ $ $ $ $ $ : 4 5       ",
"            6 $ $ $ $ $ $ $ $ $ $ $ $ $ $ $ $ $ $ 3 ^ 7 5       ",
"          8 $ $ $ $ $ $ $ $ $ $ $ $ $ $ $ $ $ $ 9 0 a b 5       ",
"        [ c d e f $ $ $ $ $ $ $ $ $ $ $ $ $ $ ( g 6 b b 5       ",
"        h i j k l m ! 8 ) n $ $ $ $ $ $ $ $ $ > o b b b p       ",
"        h q q q q q r s t u v w ~ x y & % $ z A b b b b p       ",
"        h q q q q q q q q q q q q B ( C = ~ D b b b b b p       ",
"        h q q q q q q q q q q q q q q q q E F b b b b b 5       ",
"        h q q q q q q q q q q q q q q q q E F b b b b b 5       ",
"        h q q q q q q q q q q q q q q q q E F b b b b b p       ",
"        h q q q q q q q q q q q q q q q q E F b b b b b c       ",
"        h q q q q q q q q q q q q q q q q E F b b b b b G       ",
"        h q q q q q q q q q q q q q q q q E F b b b b b p       ",
"        h q q q q q q q q q q q q q q q q E F b b b b b 5       ",
"        h q q q q q q q q q q q q q q q q E F b b b b b 5       ",
"        h q q q q q q q q q q q q q q q q E F b b b b b H       ",
"        h q q q q q q q q q q q q q q q q E F b b b b I         ",
"        h q q q q q q q q q q q q q q q q E F b b b w           ",
"        h q q q q q q q q q q q q q q q q E F b b J             ",
"        h q q q q q q q q q q q q q q q q E F b y K             ",
"        L M N O P q q q q q q q q q q q q E F Q R               ",
"                S T U a _ E V q q q q q q E F S                 ",
"                            W 4 X J Y B q E ^                   ",
"                                        Z `                     ",
"                                                                "};
