/* XPM */
static char * cyl_xpm[] = {
"32 32 100 2",
"  	c None",
". 	c #424242",
"+ 	c #616161",
"@ 	c #6F6F6F",
"# 	c #8F8F8F",
"$ 	c #959595",
"% 	c #969696",
"& 	c #929292",
"* 	c #7A7A7A",
"= 	c #696969",
"- 	c #3A3A3A",
"; 	c #646464",
"> 	c #979797",
", 	c #D4D4D4",
"' 	c #D7D7D7",
") 	c #B0B0B0",
"! 	c #717171",
"~ 	c #3B3B3B",
"{ 	c #4C4C4C",
"] 	c #AFAFAF",
"^ 	c #C5C5C5",
"/ 	c #555555",
"( 	c #D0D0D0",
"_ 	c #7D7D7D",
": 	c #494949",
"< 	c #C9C9C9",
"[ 	c #D6D6D6",
"} 	c #676767",
"| 	c #6E6E6E",
"1 	c #999999",
"2 	c #656565",
"3 	c #8A8A8A",
"4 	c #3D3D3D",
"5 	c #B8B8B8",
"6 	c #D5D5D5",
"7 	c #4B4B4B",
"8 	c #707070",
"9 	c #545454",
"0 	c #BFBFBF",
"a 	c #D1D1D1",
"b 	c #737373",
"c 	c #777777",
"d 	c #898989",
"e 	c #B4B4B4",
"f 	c #989898",
"g 	c #ADADAD",
"h 	c #909090",
"i 	c #727272",
"j 	c #838383",
"k 	c #BCBCBC",
"l 	c #7C7C7C",
"m 	c #BBBBBB",
"n 	c #767676",
"o 	c #C0C0C0",
"p 	c #CECECE",
"q 	c #CACACA",
"r 	c #9E9E9E",
"s 	c #818181",
"t 	c #858585",
"u 	c #7B7B7B",
"v 	c #8B8B8B",
"w 	c #A4A4A4",
"x 	c #CFCFCF",
"y 	c #E5E5E5",
"z 	c #DEDEDE",
"A 	c #DBDBDB",
"B 	c #E6E6E6",
"C 	c #EEEEEE",
"D 	c #F5F5F5",
"E 	c #FBFBFB",
"F 	c #FEFEFE",
"G 	c #FFFFFF",
"H 	c #FDFDFD",
"I 	c #FCFCFC",
"J 	c #F8F8F8",
"K 	c #F1F1F1",
"L 	c #E9E9E9",
"M 	c #787878",
"N 	c #939393",
"O 	c #5B5B5B",
"P 	c #878787",
"Q 	c #575757",
"R 	c #303030",
"S 	c #8E8E8E",
"T 	c #606060",
"U 	c #AAAAAA",
"V 	c #B7B7B7",
"W 	c #DADADA",
"X 	c #353535",
"Y 	c #C7C7C7",
"Z 	c #EAEAEA",
"` 	c #A3A3A3",
" .	c #CBCBCB",
"..	c #E0E0E0",
"+.	c #DFDFDF",
"@.	c #C8C8C8",
"#.	c #ACACAC",
"$.	c #9D9D9D",
"%.	c #8C8C8C",
"&.	c #393939",
"                                                                ",
"                    . + @ # $ % & * = -                         ",
"                ; > , ' ' ' ' ' ' ' ' ' ) ! ~                   ",
"            { ] ' ' ' ' ' ' ' ' ' ' ' ' ' ' ^ ;                 ",
"          / ( ' ' ' ' ' ' ' ' ' ' ' ' ' ' ' ' ' _               ",
"        : < ' ' ' ' ' ' ' ' ' ' ' ' ' ' ' ' ' ' [ }             ",
"        | ' ' ' ' ' ' ' ' ' ' ' ' ' ' ' ' ' ' ' ' 1             ",
"        2 ' ' ' ' ' ' ' ' ' ' ' ' ' ' ' ' ' ' ' ' 3             ",
"        4 5 ' ' ' ' ' ' ' ' ' ' ' ' ' ' ' ' ' ' 6 7             ",
"        8 9 0 ' ' ' ' ' ' ' ' ' ' ' ' ' ' ' ' a 8 b             ",
"        c d / % , ' ' ' ' ' ' ' ' ' ' ' ' [ e = f &             ",
"        c & g h i j e [ ' ' ' ' ' ' ' k h l 3 < m &             ",
"        n & g o p q r s # t j j u v 3 w x y z x m &             ",
"        n & g o x A B C D E F F G H I J K L z x m &             ",
"        n & g o x A B C D E F F G H I J K L z x m &             ",
"        n & g o x A B C D E F F G H I J K L z x m &             ",
"        c & g o x A B C D E F F G H I J K L z x m &             ",
"        n & g o x A B C D E F F G H I J K L z x m &             ",
"        M & g o x A B C D E F F G H I J K L z x m &             ",
"        c & g o x A B C D E F F G H I J K L z x m &             ",
"        M & g o x A B C D E F F G H I J K L z x m &             ",
"        c & g o x A B C D E F F G H I J K L z x m &             ",
"        _ & g o x A B C D E F F G H I J K L z x m &             ",
"        * & g o x A B C D E F F G H I J K L z x m N             ",
"        O & g o x A B C D E F F G H I J K L z x m P             ",
"        Q & g o x A B C D E F F G H I J K L z x m P             ",
"        R S g o x A B C D E F F G H I J K L z x m T             ",
"          / U o x A B C D E F F G H I J K L z x N               ",
"            Q V x A B C D E F F G H I J K L W S X               ",
"              ~ j Y B C D E F F G H I J Z ` O                   ",
"                    ; j w  ...+.@.#.$.%.&.                      ",
"                                                                "};
