/* XPM */
static char * magextents_xpm[] = {
"32 32 108 2",
"  	c None",
". 	c #A6A6A6",
"+ 	c #959595",
"@ 	c #999999",
"# 	c #7E7E7E",
"$ 	c #468542",
"% 	c #457E41",
"& 	c #4EA748",
"* 	c #499B43",
"= 	c #929392",
"- 	c #5D7A5B",
"; 	c #3B7E36",
"> 	c #597757",
", 	c #5E745C",
"' 	c #316A2E",
") 	c #367331",
"! 	c #3E8439",
"~ 	c #948F80",
"{ 	c #918866",
"] 	c #8F814D",
"^ 	c #898060",
"/ 	c #476833",
"( 	c #A19467",
"_ 	c #97895B",
": 	c #938E7D",
"< 	c #938E7B",
"[ 	c #918660",
"} 	c #A79761",
"| 	c #A79760",
"1 	c #928969",
"2 	c #9F9A87",
"3 	c #BDA966",
"4 	c #ABA89D",
"5 	c #9B916F",
"6 	c #958D6E",
"7 	c #918459",
"8 	c #A29258",
"9 	c #A6965D",
"0 	c #999998",
"a 	c #818181",
"b 	c #516450",
"c 	c #A19360",
"d 	c #958C6C",
"e 	c #968F76",
"f 	c #5F7F5D",
"g 	c #778F75",
"h 	c #598756",
"i 	c #418B3C",
"j 	c #5F7D5D",
"k 	c #658263",
"l 	c #4E5E45",
"m 	c #94885D",
"n 	c #969078",
"o 	c #6A6E49",
"p 	c #447941",
"q 	c #4BA045",
"r 	c #7F947E",
"s 	c #7F887F",
"t 	c #418C3C",
"u 	c #437B3F",
"v 	c #948961",
"w 	c #547C52",
"x 	c #3E8539",
"y 	c #458641",
"z 	c #B0B6B0",
"A 	c #546A52",
"B 	c #91855C",
"C 	c #61835E",
"D 	c #50854C",
"E 	c #999071",
"F 	c #D3BD72",
"G 	c #D7C174",
"H 	c #A3935B",
"I 	c #848E84",
"J 	c #A9A9A9",
"K 	c #B1A063",
"L 	c #CDB86F",
"M 	c #928B72",
"N 	c #B7A567",
"O 	c #928C73",
"P 	c #A6955A",
"Q 	c #908459",
"R 	c #BCA965",
"S 	c #998B5B",
"T 	c #8F814F",
"U 	c #726E4A",
"V 	c #4F6548",
"W 	c #AA9B67",
"X 	c #C2AF69",
"Y 	c #AEAEAC",
"Z 	c #829081",
"` 	c #547E51",
" .	c #928A6D",
"..	c #C7B26B",
"+.	c #988B5C",
"@.	c #4C8049",
"#.	c #A5A296",
"$.	c #B4A367",
"%.	c #B5A262",
"&.	c #BABABA",
"*.	c #A6A49C",
"=.	c #5F855D",
"-.	c #479942",
";.	c #5C8659",
">.	c #4A8E46",
",.	c #94A093",
"'.	c #8A8A8A",
").	c #727272",
"                                                                ",
"    . + + + + + @ @ @ @ @ @ @ # @ @ @ @ @ @ @ @ @ @ @ @ @ @     ",
"    @                         $                           @     ",
"    @                       % & *                         @     ",
"    @                     = - ; > ,                       @     ",
"    @                         '                           @     ",
"    @                         )                           @     ",
"    @                         !                           @     ",
"    @                 ~ { ] ^ /                           @     ",
"    @               ( _ : + < [ }                         @     ",
"    @             | 1           2 3 4                     @     ",
"    @           5 6                 7                     @     ",
"    @           8                   9 0             a     @     ",
"    @   b       c                   d e             f g   @     ",
"    @ h i j k l m                   n o k k k k k k p q r @     ",
"    s t u k k l c                   v o k k k k k w x & y r     ",
"    @ z A       8                   9 B             C D   @     ",
"    @           5 E                 F G H           I     @     ",
"    @             | 1           J K G G G L M             @     ",
"    @               N _ :   + O P Q R G G G G S           @     ",
"    @                 ~ T ] ] U V     W G G G G X Y       @     ",
"    @                         Z `        ...G G +.        @     ",
"    @                           @.        #.$.%.          @     ",
"    @                           !           &.*.          @     ",
"    @                           !                         @     ",
"    @                           !                         @     ",
"    @                       =.& & -.                      @     ",
"    @                         ;.>.,.                      @     ",
"    @ + + + + + + + + + + + + '.).@ + + + + + + + + + + + @     ",
"                                                                ",
"                                                                ",
"                                                                "};
