/* XPM */
static char * magnorot_xpm[] = {
"32 32 140 2",
"  	c None",
". 	c #D6D6D6",
"+ 	c #CECFCE",
"@ 	c #99A299",
"# 	c #DCDCDC",
"$ 	c #A9A9A9",
"% 	c #5B7F58",
"& 	c #489143",
"* 	c #BFC1BF",
"= 	c #BCBCBC",
"- 	c #E0E0E0",
"; 	c #8F9E8E",
"> 	c #4CA447",
", 	c #4EA748",
"' 	c #5D8A5A",
") 	c #ABABAB",
"! 	c #4A8E45",
"~ 	c #479741",
"{ 	c #848A84",
"] 	c #D7D7D7",
"^ 	c #447B40",
"/ 	c #A6A6A6",
"( 	c #BFBFBF",
"_ 	c #C2C2C2",
": 	c #4D8149",
"< 	c #A5A5A5",
"[ 	c #A1A1A1",
"} 	c #D4D4D4",
"| 	c #A3A3A3",
"1 	c #4C8049",
"2 	c #ADADAD",
"3 	c #B3B3B3",
"4 	c #BABABA",
"5 	c #C9C9C9",
"6 	c #8E835D",
"7 	c #736843",
"8 	c #796C41",
"9 	c #777346",
"0 	c #B0ADA5",
"a 	c #CECECE",
"b 	c #B6B6B6",
"c 	c #A39564",
"d 	c #9D9165",
"e 	c #AAA593",
"f 	c #DBDBDB",
"g 	c #A4A4A4",
"h 	c #A7A7A7",
"i 	c #DFDFDF",
"j 	c #8D8055",
"k 	c #95885B",
"l 	c #B2B2B2",
"m 	c #8A8A8A",
"n 	c #4C8548",
"o 	c #596C57",
"p 	c #D1D1D1",
"q 	c #9D9475",
"r 	c #A19C8A",
"s 	c #489A42",
"t 	c #52914E",
"u 	c #4C9447",
"v 	c #597A56",
"w 	c #82805C",
"x 	c #A19D90",
"y 	c #687346",
"z 	c #548351",
"A 	c #4C7B49",
"B 	c #4BA145",
"C 	c #478F42",
"D 	c #489742",
"E 	c #469741",
"F 	c #428D3D",
"G 	c #428E3D",
"H 	c #44923F",
"I 	c #5F763D",
"J 	c #A09982",
"K 	c #847F64",
"L 	c #4BA146",
"M 	c #5B8C58",
"N 	c #989B98",
"O 	c #667865",
"P 	c #4D9149",
"Q 	c #5F815D",
"R 	c #9C9065",
"S 	c #A1956C",
"T 	c #B6A569",
"U 	c #A29E92",
"V 	c #3C6C38",
"W 	c #7F997D",
"X 	c #CBCBCB",
"Y 	c #AFAFAF",
"Z 	c #C6C6C6",
"` 	c #9C9271",
" .	c #A7A087",
"..	c #C9B46C",
"+.	c #D7C174",
"@.	c #D5BF73",
"#.	c #9D9371",
"$.	c #A8A8A8",
"%.	c #978F71",
"&.	c #9E9162",
"*.	c #9E977F",
"=.	c #988F70",
"-.	c #91855C",
";.	c #A89B6C",
">.	c #B2A168",
",.	c #AAAAAA",
"'.	c #B1B1B1",
").	c #9F9A87",
"!.	c #3D6A33",
"~.	c #A19B86",
"{.	c #C3B06C",
"].	c #9E9165",
"^.	c #C7C7C7",
"/.	c #BBBBBB",
"(.	c #3F7C3B",
"_.	c #B6B4B0",
":.	c #A59766",
"<.	c #BBA869",
"[.	c #BFBDB7",
"}.	c #DDDDDD",
"|.	c #ADAAA1",
"1.	c #BDBDBD",
"2.	c #CCCCCC",
"3.	c #D9D9D9",
"4.	c #DEDEDE",
"5.	c #B7B7B7",
"6.	c #B4B4B4",
"7.	c #D8D8D8",
"8.	c #3C7938",
"9.	c #7C857C",
"0.	c #598556",
"a.	c #448E3F",
"b.	c #478543",
"c.	c #567D53",
"d.	c #638F60",
"e.	c #4EA648",
"f.	c #4DA447",
"g.	c #6B836A",
"h.	c #CDCDCD",
"i.	c #5D895A",
"                                                                ",
"                          . + @                                 ",
"                        # $ % & *                               ",
"                      = - ; > , ' #                             ",
"                    ) -   ! , , ~ { -                           ",
"                    ]         ^   / (                           ",
"                  _ -         :       < -                       ",
"                  -           :         [ }                     ",
"              | -             1           2 3                   ",
"            4 5         6 7 8 9 0           a /                 ",
"            b -       c         d e           f g               ",
"          h i       j             k               l m n         ",
"        o p         q               r               ) s t       ",
"      u v         w x               y z z z z z z z A B , C     ",
"    D , E F G H H I J               K                 D L M N   ",
"    O P Q           R             S T U               V W X Y   ",
"  Z =               `  .          ..+.@.#.              - |     ",
"    $.                %.&.*.*.=.-.;.@.+.+.>.            ,.      ",
"        '.                ).).!.    ~.{.+.+.].        ^./.      ",
"          [                   (.      _.:.<.[.      }./         ",
"            /                 (.          |.        /           ",
"              b b             (.                  Z 1.          ",
"                2.|           (.                3.$             ",
"                  4.$.        (.              - |               ",
"                    - 5.      (.              6.                ",
"                        ^.    (.            } Y                 ",
"                          7.,.8.          i g                   ",
"                          9.0.a.b.c.    - 6.                    ",
"                            d.e.f.g.    h.                      ",
"                              i.i.  $ ^.                        ",
"                                      4                         ",
"                                                                "};
