/* XPM */
static char * new_xpm[] = {
"32 32 443 2",
"  	c None",
". 	c #3A67B1",
"+ 	c #2859A7",
"@ 	c #2D64BF",
"# 	c #3D73CA",
"$ 	c #4474C5",
"% 	c #3B6AB5",
"& 	c #426FB9",
"* 	c #3568BD",
"= 	c #3567BC",
"- 	c #356AC2",
"; 	c #336AC5",
"> 	c #3267BF",
", 	c #2D61B8",
"' 	c #2B5BAC",
") 	c #2D5CA8",
"! 	c #5980C3",
"~ 	c #5F8AD0",
"{ 	c #4777C8",
"] 	c #3764AE",
"^ 	c #6489C4",
"/ 	c #6B92D3",
"( 	c #7299D9",
"_ 	c #769AD6",
": 	c #6F93CD",
"< 	c #7295CE",
"[ 	c #698FCF",
"} 	c #658CCD",
"| 	c #5D88CE",
"1 	c #628CD3",
"2 	c #5380CB",
"3 	c #5B85CA",
"4 	c #4E77BD",
"5 	c #315EA8",
"6 	c #7999CF",
"7 	c #82A3DA",
"8 	c #3966B0",
"9 	c #B3C8EB",
"0 	c #BDD0EE",
"a 	c #BBCDED",
"b 	c #BACDED",
"c 	c #B8CCED",
"d 	c #B5CAEC",
"e 	c #B2C8E9",
"f 	c #ACC2E7",
"g 	c #98B3E0",
"h 	c #A4BDE5",
"i 	c #93B0E0",
"j 	c #A3BBE5",
"k 	c #92AEDD",
"l 	c #3C68B1",
"m 	c #C3D1E9",
"n 	c #B9CBEA",
"o 	c #7598D6",
"p 	c #4672B9",
"q 	c #A9C0E6",
"r 	c #B6CBEC",
"s 	c #B5C9EB",
"t 	c #B4C8EA",
"u 	c #B0C6E8",
"v 	c #AFC5E8",
"w 	c #ADC3E7",
"x 	c #A1B9E2",
"y 	c #A5BDE5",
"z 	c #A8BFE7",
"A 	c #A9C0E8",
"B 	c #4576C3",
"C 	c #F0F3FA",
"D 	c #C5D4EE",
"E 	c #AEC3E9",
"F 	c #7C9ED8",
"G 	c #4773BB",
"H 	c #9AB6E3",
"I 	c #AAC2E7",
"J 	c #ADC4E8",
"K 	c #B2C7EA",
"L 	c #ACC1E4",
"M 	c #AEC4E6",
"N 	c #ABC2E8",
"O 	c #9CB7E5",
"P 	c #9BB6E4",
"Q 	c #487CCF",
"R 	c #EFF3FA",
"S 	c #DCE5F5",
"T 	c #D7E1F3",
"U 	c #9EB8E3",
"V 	c #4170BF",
"W 	c #5A84CD",
"X 	c #6D92D2",
"Y 	c #7FA1D7",
"Z 	c #A6BEE5",
"` 	c #B1C5E7",
" .	c #B8CCEC",
"..	c #B0C5E7",
"+.	c #ADC3E6",
"@.	c #ACC3E8",
"#.	c #9EB9E5",
"$.	c #9FB9E4",
"%.	c #487BCE",
"&.	c #EBF0F9",
"*.	c #FCFDFE",
"=.	c #FBFCFD",
"-.	c #B5C8EA",
";.	c #8DACDE",
">.	c #3264B8",
",.	c #3B6EB5",
"'.	c #3B6FB4",
").	c #396EB3",
"!.	c #376BB4",
"~.	c #3A6EB2",
"{.	c #4876C2",
"].	c #8DACDC",
"^.	c #BCCFEE",
"/.	c #B9CCEC",
"(.	c #B6CAEB",
"_.	c #ADC3E4",
":.	c #ADC3E9",
"<.	c #A7BFE7",
"[.	c #A7BEE7",
"}.	c #FAFBFD",
"|.	c #FBFBFE",
"1.	c #D6E1F3",
"2.	c #9FB8E3",
"3.	c #789BD6",
"4.	c #295195",
"5.	c #99D46A",
"6.	c #9FDC64",
"7.	c #91CC70",
"8.	c #AFEC59",
"9.	c #3265BB",
"0.	c #86A6DA",
"a.	c #C4D5F0",
"b.	c #BDD0ED",
"c.	c #B7CBEB",
"d.	c #B3C8EA",
"e.	c #AAC2E8",
"f.	c #F7F9FC",
"g.	c #ECF1F9",
"h.	c #FDFDFE",
"i.	c #D5E0F3",
"j.	c #A3BCE5",
"k.	c #295296",
"l.	c #ACE95B",
"m.	c #A4E061",
"n.	c #3366BB",
"o.	c #7C9ED6",
"p.	c #B7CBEC",
"q.	c #A9C1E8",
"r.	c #9FB9E5",
"s.	c #F7F9FD",
"t.	c #FFFFFF",
"u.	c #FEFEFE",
"v.	c #CBD9F0",
"w.	c #3365BA",
"x.	c #A5E25F",
"y.	c #93CE6E",
"z.	c #5984C9",
"A.	c #81A2D8",
"B.	c #9FB9E3",
"C.	c #BED0EE",
"D.	c #ACC2E8",
"E.	c #A0BAE5",
"F.	c #F6F8FC",
"G.	c #F8FAFC",
"H.	c #F9FAFD",
"I.	c #FFFFFE",
"J.	c #779BD6",
"K.	c #2E60BF",
"L.	c #2D5FC0",
"M.	c #2D60C0",
"N.	c #AAE75B",
"O.	c #9BD768",
"P.	c #2F61BE",
"Q.	c #3163BF",
"R.	c #3466C1",
"S.	c #3566C0",
"T.	c #396ABD",
"U.	c #7EA0D7",
"V.	c #C3D4F0",
"W.	c #A6BEE7",
"X.	c #4378CD",
"Y.	c #5283D1",
"Z.	c #5483D1",
"`.	c #5786D2",
" +	c #5D8AD3",
".+	c #5685D1",
"++	c #5181D1",
"@+	c #4176CC",
"#+	c #3B70C7",
"$+	c #86BF79",
"%+	c #98D469",
"&+	c #99D568",
"*+	c #ABE75B",
"=+	c #A4E060",
"-+	c #7EB87F",
";+	c #7EB87E",
">+	c #7DB77E",
",+	c #71A988",
"'+	c #7E9FD6",
")+	c #CAD9F2",
"!+	c #C2D4EF",
"~+	c #9EB8E5",
"{+	c #88A8DF",
"]+	c #86A7DE",
"^+	c #87A8DE",
"/+	c #7CA0DB",
"(+	c #769CDA",
"_+	c #6790D6",
":+	c #4C7DCF",
"<+	c #3A70CA",
"[+	c #9CD867",
"}+	c #AEEC59",
"|+	c #ABE85C",
"1+	c #A8E55E",
"2+	c #98D46A",
"3+	c #D0DEF4",
"4+	c #C9D9F2",
"5+	c #C1D2EF",
"6+	c #B1C6EA",
"7+	c #ADC3E8",
"8+	c #A4BCE6",
"9+	c #9CB7E4",
"0+	c #5E8AD3",
"a+	c #A9E65D",
"b+	c #ADEA5A",
"c+	c #99D469",
"d+	c #84A3D8",
"e+	c #D6E1F5",
"f+	c #CFDDF3",
"g+	c #C9D9F1",
"h+	c #B8CBEC",
"i+	c #B6CAEC",
"j+	c #B4C9EB",
"k+	c #98B4E3",
"l+	c #658FD6",
"m+	c #A7E45E",
"n+	c #AEEB59",
"o+	c #ADEA5B",
"p+	c #ACEA5B",
"q+	c #87A5D8",
"r+	c #DAE5F6",
"s+	c #D5E1F5",
"t+	c #D0DDF3",
"u+	c #C5D5F0",
"v+	c #C0D2EF",
"w+	c #BBCEED",
"x+	c #B7CAEB",
"y+	c #ACC3E9",
"z+	c #96B3E3",
"A+	c #6892D7",
"B+	c #AAE75C",
"C+	c #A0DD64",
"D+	c #AFED58",
"E+	c #B0EE57",
"F+	c #B2EF56",
"G+	c #95D06D",
"H+	c #89A7D9",
"I+	c #DEE7F7",
"J+	c #D9E4F6",
"K+	c #C8D8F1",
"L+	c #C1D3EF",
"M+	c #B5CAEB",
"N+	c #A1BBE6",
"O+	c #6D95D8",
"P+	c #3C72CB",
"Q+	c #558AA0",
"R+	c #649B94",
"S+	c #5C929A",
"T+	c #5D939A",
"U+	c #A6E25F",
"V+	c #94CF6D",
"W+	c #6BA38E",
"X+	c #69A18C",
"Y+	c #67A08B",
"Z+	c #50879D",
"`+	c #2D62B9",
" @	c #86A5D9",
".@	c #E0E9F8",
"+@	c #DDE7F6",
"@@	c #DAE4F6",
"#@	c #D4E0F5",
"$@	c #BACDEC",
"%@	c #A7BFE8",
"&@	c #739ADA",
"*@	c #4176CD",
"=@	c #2B5DC2",
"-@	c #295BC3",
";@	c #9BD767",
">@	c #86C079",
",@	c #2B5DC1",
"'@	c #3D6BC8",
")@	c #4F78CE",
"!@	c #517BCB",
"~@	c #5681C7",
"{@	c #9DB6E0",
"]@	c #E4EBF8",
"^@	c #E0E9F7",
"/@	c #D9E3F5",
"(@	c #CEDCF3",
"_@	c #C7D7F1",
":@	c #C0D2EE",
"<@	c #B2C8EB",
"[@	c #ABC2E9",
"}@	c #789EDB",
"|@	c #4578CD",
"1@	c #97D26B",
"2@	c #8EC972",
"3@	c #7899D3",
"4@	c #BDCEEA",
"5@	c #BBCCE9",
"6@	c #B9CCE9",
"7@	c #D0DCF1",
"8@	c #E7EEF9",
"9@	c #E3EBF8",
"0@	c #DDE6F6",
"a@	c #DAE4F5",
"b@	c #D3DFF4",
"c@	c #7DA2DC",
"d@	c #477ACE",
"e@	c #8FCA71",
"f@	c #B0ED58",
"g@	c #8BC674",
"h@	c #98B2DD",
"i@	c #FCFDFF",
"j@	c #F9FCFF",
"k@	c #F7FAFE",
"l@	c #F2F6FC",
"m@	c #ECF1FB",
"n@	c #E9F0FA",
"o@	c #E2EAF8",
"p@	c #E0E8F7",
"q@	c #D4E0F4",
"r@	c #CDDBF3",
"s@	c #C6D7F1",
"t@	c #82A5DD",
"u@	c #497CCE",
"v@	c #6CA38D",
"w@	c #8DC872",
"x@	c #87C276",
"y@	c #91CD6E",
"z@	c #6BA48B",
"A@	c #3164BA",
"B@	c #93AEDC",
"C@	c #F6F8FD",
"D@	c #F5F8FD",
"E@	c #F3F6FC",
"F@	c #F3F7FC",
"G@	c #E6EDF9",
"H@	c #E2EAF7",
"I@	c #C6D6F0",
"J@	c #BFD1EE",
"K@	c #87A9DE",
"L@	c #4E7FCF",
"M@	c #3061C3",
"N@	c #3565C4",
"O@	c #3867C5",
"P@	c #3B6BC3",
"Q@	c #4070BF",
"R@	c #9BB5DE",
"S@	c #F4F8FD",
"T@	c #F4F8FC",
"U@	c #DFE8F6",
"V@	c #D8E3F5",
"W@	c #D3E0F4",
"X@	c #CCDBF2",
"Y@	c #C5D6F0",
"Z@	c #8CADE0",
"`@	c #5383D0",
" #	c #5682CC",
".#	c #7FA0D7",
"+#	c #A6BCE1",
"@#	c #A5BCE1",
"##	c #CFDBEF",
"$#	c #F8FAFE",
"%#	c #F7FAFD",
"&#	c #EBF0FA",
"*#	c #E1E9F7",
"=#	c #DCE5F6",
"-#	c #D8E2F5",
";#	c #D2DFF4",
">#	c #CBDAF2",
",#	c #91AFE2",
"'#	c #5584D1",
")#	c #FDFEFF",
"!#	c #FAFCFE",
"~#	c #F1F6FC",
"{#	c #EDF2FB",
"]#	c #E3EAF8",
"^#	c #DFE8F7",
"/#	c #DCE6F6",
"(#	c #D7E2F5",
"_#	c #95B2E3",
":#	c #7198D9",
"<#	c #FEFFFF",
"[#	c #FEFEFF",
"}#	c #FAFBFE",
"|#	c #F0F4FC",
"1#	c #EBF1FA",
"2#	c #DBE5F6",
"3#	c #C8D7F1",
"4#	c #618DD4",
"5#	c #FBFCFE",
"6#	c #F0F5FC",
"7#	c #EAF0FA",
"8#	c #E5EDF9",
"9#	c #94B2E3",
"0#	c #5886D2",
"a#	c #FDFDFF",
"b#	c #F9FBFD",
"c#	c #EFF5FC",
"d#	c #ECF2FB",
"e#	c #E9EFFA",
"f#	c #E5ECF9",
"g#	c #E1EAF8",
"h#	c #618DD5",
"i#	c #F9FBFE",
"j#	c #FCFCFD",
"k#	c #FAFCFD",
"l#	c #EFF4FC",
"m#	c #A5BEE8",
"n#	c #6590D6",
"o#	c #F6F9FD",
"p#	c #F1F5FC",
"q#	c #EDF3FB",
"r#	c #6891D7",
"s#	c #A3BDE6",
"t#	c #D6E1F4",
"u#	c #D5E0F4",
"v#	c #D1DDF3",
"w#	c #D0DCF3",
"x#	c #CFDCF3",
"y#	c #CDDBF2",
"z#	c #C9D8F1",
"A#	c #99B5E4",
"B#	c #6B94D8",
"C#	c #7EA2DC",
"D#	c #8BABE0",
"E#	c #8AAAE0",
"F#	c #89AAE0",
"G#	c #89A9E0",
"H#	c #88A9DF",
"I#	c #7B9FDC",
"J#	c #7097D9",
"              . + @ # $ % & * = - ; > , ' ) ! ~ {               ",
"              ] ^ / ( _ : < [ } | 1 2 3 4 5 6 7                 ",
"              8 9 0 a b c d e f g h i j k l m n o               ",
"              p q r r s t u v w x y z A A B C D E F             ",
"              G H f I J K L M w J N O z P Q R S T U             ",
"              V W X X Y Z `  ...+.@.#.z $.%.&.*.=.-.;.          ",
"          >.,.'.).!.~.{.].^./.(._.:.<.z [.%.R }.|.1.2.3.        ",
"          4.5.6.6.7.8.9.0.a.b.c.(.d.e.z #.%.f.=.g.h.i.j.        ",
"          k.l.l.l.l.m.n.o.a.a.a.b p.d.q.r.%.s.t.t.u.u.v.z       ",
"          w.x.l.l.l.y.n.z.A.A.A.B.C.(.D.E.%.F.t.G.H.I.t.J.      ",
"  n.K.L.L.M.N.l.l.l.O.P.Q.R.S.T.U.V.b s W.X.Y.Z.`. +.+++@+#+    ",
"  n.$+5.%+&+*+l.l.l.=+-+;+>+,+9.'+)+!+s s ~+{+]+^+/+(+_+:+<+    ",
"  n.[+8.}+}+l.l.l.l.|+1+1+1+2+n.A.3+4+5+p.(.:.6+7+j 8+9+0+<+    ",
"  n.a+l.l.l.l.l.l.l.l.b+b+b+c+n.d+e+f+g+h+ .i+(.(.j+O k+l+<+    ",
"  n.m+b+n+n+l.l.l.l.o+o+p+l.m.n.q+r+s+t+u+v+w+r x+ .y+z+A+<+    ",
"  n.7.B+C+C+b+l.l.l.N.D+E+F+G+n.H+I+J+s+f+K+L+w+(.M+h+N+O+P+    ",
"  n.Q+R+S+T+U+l.l.l.V+W+X+Y+Z+`+ @.@+@@@#@f+K+5+$@M+K %@&@*@    ",
"  n.=@-@-@=@;@l.l.l.>@,@'@)@!@~@{@]@^@+@/@#@(@_@:@b <@[@}@|@    ",
"            1@l.o+l.2@n.3@4@5@6@7@8@9@^@0@a@b@(@_@v+b 9 c@d@    ",
"            e@n+l.f@g@n.h@i@j@k@l@m@n@o@^@p@@@q@r@s@v+b t@u@    ",
"          n.v@w@x@y@z@A@B@C@D@E@F@l@F@G@o@o@H@/@b@r@I@J@K@L@    ",
"          n.K.M@N@O@P@Q@R@s.C@D@S@S@S@T@9@o@o@U@V@W@X@Y@Z@`@    ",
"               #.#+#@#@###$#%#C@S@S@S@l@&#o@o@*#=#-#;#>#,#'#    ",
"              ( b t.t.t.)#!#$#s.D@S@l@~#{#]#o@o@^#/#(#_@_#'#    ",
"              :# .t.<#[#)#*.F.}#%#C@S@l@|#{#1#{#o@^#2#3#_#4#    ",
"              :# .t.t.t.[#)#h.5#$#s.S@S@F@6#{#{#G@o@^#2#_#'#    ",
"              :# .t.t.t.<#[#)#[#*.}#%#S@S@D@F@{#7#8#o@^#9#0#    ",
"              :# .t.t.t.t.t.[#[#[#[#)#a#5#S@b#c#d#e#f#g#E.h#    ",
"              :# .t.t.t.t.t.<#[#)#*.5#i#j#H.k#~#l#m@e#f#m#n#    ",
"              :#w+t.t.t.t.t.t.t.t.t.t.<#[#I.*.i#o#S@p#q#[@r#    ",
"              :#s#t#t#t#t#t#t#t#u#q@b@b@v#v#w#x#y#>#z#_@A#B#    ",
"              :#C#D#D#D#D#D#D#D#D#D#E#E#E#E#E#F#G#H#H#{+I#J#    "};
