/* XPM */
static char * redo_xpm[] = {
"32 32 84 1",
" 	c None",
".	c #525252",
"+	c #434343",
"@	c #616161",
"#	c #314469",
"$	c #455679",
"%	c #476AB0",
"&	c #404040",
"*	c #3C3C3C",
"=	c #4B505D",
"-	c #415887",
";	c #516285",
">	c #4D4D4D",
",	c #393939",
"'	c #253C6B",
")	c #4371CF",
"!	c #3B4C6E",
"~	c #818181",
"{	c #304676",
"]	c #4872CA",
"^	c #4564A5",
"/	c #2E3A51",
"(	c #314877",
"_	c #4466AD",
":	c #415D98",
"<	c #3E3E3E",
"[	c #4B6DB4",
"}	c #303642",
"|	c #373737",
"1	c #3E4A63",
"2	c #2E3B55",
"3	c #676767",
"4	c #3E5484",
"5	c #313E57",
"6	c #464646",
"7	c #374E7D",
"8	c #363636",
"9	c #3D434E",
"0	c #384C74",
"a	c #3F3F3F",
"b	c #425275",
"c	c #354C7B",
"d	c #4C6FB7",
"e	c #2F2F2F",
"f	c #353A46",
"g	c #445C8A",
"h	c #2C2C2C",
"i	c #343434",
"j	c #485F8E",
"k	c #747474",
"l	c #141414",
"m	c #28406E",
"n	c #2A2A2A",
"o	c #223968",
"p	c #080808",
"q	c #364E7C",
"r	c #0E0E0E",
"s	c #546B9C",
"t	c #48649E",
"u	c #31456E",
"v	c #3B3B3B",
"w	c #4668AF",
"x	c #3A3A3A",
"y	c #44619B",
"z	c #2E3A53",
"A	c #2C364A",
"B	c #373D49",
"C	c #3E5D9E",
"D	c #374B74",
"E	c #3D4960",
"F	c #484848",
"G	c #344058",
"H	c #252525",
"I	c #4B72C4",
"J	c #2E3B54",
"K	c #303A50",
"L	c #4672CC",
"M	c #303C53",
"N	c #26334E",
"O	c #333436",
"P	c #2B3956",
"Q	c #3E527C",
"R	c #2B364F",
"S	c #36425A",
"                                ",
"                   .+           ",
"                   @#           ",
"                   $%&          ",
"            *=-;>, ')!~         ",
"          ,{]))))^/())*         ",
"         *_))))))))))):<        ",
"        <[))^}*|1(]))))2        ",
"       34))5     67))))%8       ",
"       9))0     ab))))))!       ",
"       c)d<    efggggggggh      ",
"      i[)jk                     ",
"      l))m                      ",
"      n))o                      ",
"      p))q                      ",
"      r))s                      ",
"       t))<                     ",
"       u)){                     ",
"       v))wx                    ",
"        y))q                    ",
"        z)))A                   ",
"        8^))%                   ",
"         B)))C                  ",
"          D)))E                 ",
"          F_)))G                ",
"           HI)))J               ",
"            KL))IM              ",
"             N))))O             ",
"              P))Q              ",
"               RS               ",
"                k               ",
"                                "};
