/* XPM */
static char * redraw_xpm[] = {
"32 32 224 2",
"  	c None",
". 	c #505F9B",
"+ 	c #47526B",
"@ 	c #4E5F9D",
"# 	c #7487B9",
"$ 	c #3A4369",
"% 	c #4E5D9F",
"& 	c #5465A3",
"* 	c #3C436E",
"= 	c #5063A9",
"- 	c #5465A7",
"; 	c #364369",
"> 	c #5469AC",
", 	c #5665A7",
"' 	c #323A5C",
") 	c #5269AC",
"! 	c #5F72B8",
"~ 	c #272D45",
"{ 	c #5469AA",
"] 	c #7D94E1",
"^ 	c #252B3A",
"/ 	c #4E619B",
"( 	c #7F98E3",
"_ 	c #232B36",
": 	c #4C5D96",
"< 	c #839BE7",
"[ 	c #232736",
"} 	c #4B5C90",
"| 	c #7D96E1",
"1 	c #252932",
"2 	c #455483",
"3 	c #788CD2",
"4 	c #272B34",
"5 	c #3D4B74",
"6 	c #6E81C1",
"7 	c #383D50",
"8 	c #3D4E7B",
"9 	c #505F98",
"0 	c #5A6589",
"a 	c #4E5FA1",
"b 	c #6783C5",
"c 	c #546BAC",
"d 	c #697FB8",
"e 	c #9BB4F6",
"f 	c #5A72B0",
"g 	c #5067A5",
"h 	c #5269A9",
"i 	c #5067AA",
"j 	c #586CB2",
"k 	c #5A6EB2",
"l 	c #697DC5",
"m 	c #89A3EE",
"n 	c #B6C8FF",
"o 	c #A7B9D2",
"p 	c #A1B9F7",
"q 	c #8AA3D2",
"r 	c #9AB0EA",
"s 	c #7A8EBD",
"t 	c #7D96D7",
"u 	c #8EA9EE",
"v 	c #89A3F6",
"w 	c #9BB9FF",
"x 	c #A1B9FF",
"y 	c #A9C3FF",
"z 	c #B6D0FF",
"A 	c #EEFFFF",
"B 	c #A5B4D0",
"C 	c #ACBDEE",
"D 	c #B4C3F4",
"E 	c #CAE5FF",
"F 	c #D2E7FF",
"G 	c #ECFFFF",
"H 	c #FBFFFF",
"I 	c #FFFFFF",
"J 	c #D2F0FF",
"K 	c #C8E1FF",
"L 	c #D7EEFF",
"M 	c #A5B0CA",
"N 	c #9FACD6",
"O 	c #AEBBEA",
"P 	c #C1D6FF",
"Q 	c #E3FFFF",
"R 	c #F9FFFF",
"S 	c #DBF0FF",
"T 	c #F2FFFF",
"U 	c #9DA7C3",
"V 	c #9BAAD2",
"W 	c #B0BFF0",
"X 	c #B2C5F6",
"Y 	c #D2EAFF",
"Z 	c #DFF4FF",
"` 	c #9FAEC7",
" .	c #8C98B9",
"..	c #9AA9CA",
"+.	c #AABBE5",
"@.	c #C1D4FF",
"#.	c #D0E5FF",
"$.	c #E5FDFF",
"%.	c #FDFFFF",
"&.	c #E8FFFF",
"*.	c #767F98",
"=.	c #8592A3",
"-.	c #94A3CC",
";.	c #8C9FD6",
">.	c #768AC5",
",.	c #859AD2",
"'.	c #899DD6",
").	c #8EA5E7",
"!.	c #98B0F2",
"~.	c #9AAEEC",
"{.	c #A3B9FF",
"].	c #92A7E3",
"^.	c #A7B9E3",
"/.	c #E3F2FF",
"(.	c #58678E",
"_.	c #677DAE",
":.	c #5A70A3",
"<.	c #617BB9",
"[.	c #5267A1",
"}.	c #657DB8",
"|.	c #5D74AE",
"1.	c #6178B6",
"2.	c #657FBF",
"3.	c #6B83C5",
"4.	c #6E87BF",
"5.	c #6B81C5",
"6.	c #748ACC",
"7.	c #839BD7",
"8.	c #5D7296",
"9.	c #657BAC",
"0.	c #637AAE",
"a.	c #617AB4",
"b.	c #546994",
"c.	c #5A70A5",
"d.	c #6176A5",
"e.	c #5F74A9",
"f.	c #5F729D",
"g.	c #586C9A",
"h.	c #6376AE",
"i.	c #546596",
"j.	c #697DAC",
"k.	c #4E5F85",
"l.	c #637BB2",
"m.	c #6C85BF",
"n.	c #6B85BB",
"o.	c #677DB0",
"p.	c #5D70A3",
"q.	c #6B83BD",
"r.	c #7A94CC",
"s.	c #5A72A1",
"t.	c #677DAC",
"u.	c #566B9D",
"v.	c #586B9B",
"w.	c #4C5D8C",
"x.	c #6178A5",
"y.	c #3D4B6C",
"z.	c #435081",
"A.	c #43527F",
"B.	c #495887",
"C.	c #3F4C74",
"D.	c #435685",
"E.	c #52659F",
"F.	c #4B5D89",
"G.	c #495A87",
"H.	c #526198",
"I.	c #43527D",
"J.	c #415078",
"K.	c #495885",
"L.	c #9AA7CC",
"M.	c #3A456B",
"N.	c #3F5078",
"O.	c #3F4E7F",
"P.	c #3A4778",
"Q.	c #3A4765",
"R.	c #384567",
"S.	c #3F4C76",
"T.	c #505F90",
"U.	c #41507D",
"V.	c #3C496C",
"W.	c #475290",
"X.	c #3D4970",
"Y.	c #47547B",
"Z.	c #4E5C90",
"`.	c #6B7BA9",
" +	c #343D5F",
".+	c #41507B",
"++	c #3D4B70",
"@+	c #2E3C5F",
"#+	c #343F65",
"$+	c #36456C",
"%+	c #3C4C70",
"&+	c #475685",
"*+	c #3A476E",
"=+	c #3D4C74",
"-+	c #323D5D",
";+	c #4C5C8C",
">+	c #4E5D89",
",+	c #2D3652",
"'+	c #38456B",
")+	c #344163",
"!+	c #293454",
"~+	c #323D5A",
"{+	c #323D5F",
"]+	c #364367",
"^+	c #475285",
"/+	c #2B3656",
"(+	c #364565",
"_+	c #3A4970",
":+	c #323A5A",
"<+	c #47507A",
"[+	c #495683",
"}+	c #4C5D8A",
"|+	c #2D3A52",
"1+	c #3D4B72",
"2+	c #2E3C5A",
"3+	c #323F5F",
"4+	c #303C54",
"5+	c #3C496B",
"6+	c #2B365A",
"7+	c #3A4E78",
"8+	c #2D3656",
"9+	c #3D476B",
"0+	c #47527B",
"a+	c #4B5885",
"                                                                ",
"                              .                                 ",
"                            + @ #                               ",
"                            $ % &                               ",
"                            * = -                               ",
"                            ; > ,                               ",
"                            ' ) !                               ",
"                            ~ { ]                               ",
"                            ^ / (                               ",
"                            _ : <                               ",
"                            [ } |                               ",
"                            1 2 3                               ",
"                            4 5 6                               ",
"                            7 8 9                               ",
"                          0 a b c d                             ",
"                      e f g h i j k l m n                       ",
"                  o p q r s t u v w x y z A                     ",
"                  B C D E F G H I I J K L I I                   ",
"                  M N O P Q I I I I R S T I I                   ",
"                  U V W X Y A I I I H Z G I I                   ",
"                  `  ...+.@.#.$.R %.I H &.I I                   ",
"                  *.=.-.;.>.,.'.).!.~.{.].^./.                  ",
"                  (._.:.<.[.}.|.1.2.3.4.5.6.7.                  ",
"                  8.9.0.a.b.c.d.4.e.f.g.h.i.j.                  ",
"                  k.l.m.n.o.p.q.r.s.t.u.v.w.x.                  ",
"                  y.z.A.B.A.C.D.E.F.G.H.I.J.K.L.                ",
"                  M.N.O.P.Q.R.S.T.U.V.W.X.Y.Z.`.                ",
"                   +.+++@+#+$+%+&+*+V.=+-+K.;+>+                ",
"                  ,+'+)+!+~+{+]+^+/+(+_+:+<+[+}+                ",
"                  |+1+2+3+4+5+/+=+6+)+7+8+9+0+a+                ",
"                                                                ",
"                                                                "};
