/* XPM */
static char * save_xpm[] = {
"32 32 319 2",
"  	c None",
". 	c #2C58A0",
"+ 	c #2C58A1",
"@ 	c #2C59A2",
"# 	c #2C579F",
"$ 	c #29559E",
"% 	c #26539D",
"& 	c #29569E",
"* 	c #2C589F",
"= 	c #2B569C",
"- 	c #2A5397",
"; 	c #2E5CA6",
"> 	c #EFF3F8",
", 	c #F9FAFC",
"' 	c #F7F9FB",
") 	c #FAFBFC",
"! 	c #F3F5F9",
"~ 	c #FCFDFD",
"{ 	c #FBFCFD",
"] 	c #EEF2F7",
"^ 	c #2D5AA4",
"/ 	c #2B579E",
"( 	c #213F70",
"_ 	c #203E6E",
": 	c #2B559A",
"< 	c #3568BC",
"[ 	c #FFFFFF",
"} 	c #FEFEFE",
"| 	c #FDFDFE",
"1 	c #3162B3",
"2 	c #295295",
"3 	c #213E6E",
"4 	c #224073",
"5 	c #345FA7",
"6 	c #4F80CF",
"7 	c #FAFBFD",
"8 	c #D0DCF2",
"9 	c #628DD5",
"0 	c #6B93D7",
"a 	c #487ACE",
"b 	c #3467BD",
"c 	c #2A5395",
"d 	c #355FA3",
"e 	c #395E9B",
"f 	c #4271BE",
"g 	c #5181D0",
"h 	c #F8FAFD",
"i 	c #B5C9EB",
"j 	c #D9E4F5",
"k 	c #D8E3F4",
"l 	c #D7E2F4",
"m 	c #D6E1F3",
"n 	c #D7E3F4",
"o 	c #FBFCFE",
"p 	c #FEFEFF",
"q 	c #366BC2",
"r 	c #4072C4",
"s 	c #30528A",
"t 	c #2B4E88",
"u 	c #3764AD",
"v 	c #5281CE",
"w 	c #5584D1",
"x 	c #4E7FCF",
"y 	c #4478CC",
"z 	c #FBFDFE",
"A 	c #FDFEFF",
"B 	c #FCFDFE",
"C 	c #F7FAFD",
"D 	c #F0F4FB",
"E 	c #F9FBFE",
"F 	c #4678CC",
"G 	c #477ACD",
"H 	c #426FBA",
"I 	c #305CA4",
"J 	c #3A70CA",
"K 	c #DBF6E4",
"L 	c #B9EFCA",
"M 	c #ACECC0",
"N 	c #ABECC0",
"O 	c #F1F5FB",
"P 	c #487ACB",
"Q 	c #416EB9",
"R 	c #4A78C4",
"S 	c #F7F9FD",
"T 	c #F4FCF8",
"U 	c #ECFAF2",
"V 	c #E6F8EC",
"W 	c #E5F8EC",
"X 	c #EDFAF2",
"Y 	c #E0F8E8",
"Z 	c #4175CA",
"` 	c #4074CB",
" .	c #F2F6FB",
"..	c #A9ECBE",
"+.	c #FAFBFE",
"@.	c #C2F1D1",
"#.	c #D2F4DE",
"$.	c #E0E8F6",
"%.	c #B1C6EA",
"&.	c #DDE6F5",
"*.	c #4679CD",
"=.	c #F7F9FC",
"-.	c #D3F5DE",
";.	c #CFF2DD",
">.	c #F4F7FC",
",.	c #F9FBFD",
"'.	c #B8CCEB",
").	c #97B4E2",
"!.	c #487ACD",
"~.	c #4578CC",
"{.	c #517FCC",
"].	c #D1F4DE",
"^.	c #DBE4F5",
"/.	c #789DDA",
"(.	c #497ACE",
"_.	c #7399D9",
":.	c #4477CC",
"<.	c #396FCA",
"[.	c #F3F6FB",
"}.	c #F9FAFD",
"|.	c #6D95D7",
"1.	c #89A9DF",
"2.	c #4679CC",
"3.	c #4779CD",
"4.	c #4075CC",
"5.	c #E6ECF7",
"6.	c #A3BCE6",
"7.	c #3E72CA",
"8.	c #4175CB",
"9.	c #4074CA",
"0.	c #4779CB",
"a.	c #4678CB",
"b.	c #4477CA",
"c.	c #3F73CA",
"d.	c #3B70CA",
"e.	c #4D7ECE",
"f.	c #3E73CA",
"g.	c #4376CA",
"h.	c #4377CB",
"i.	c #4075CB",
"j.	c #5281CF",
"k.	c #4E7ECD",
"l.	c #4F7FCE",
"m.	c #5080CF",
"n.	c #5282D0",
"o.	c #5483D0",
"p.	c #5483CF",
"q.	c #5382CE",
"r.	c #5381CD",
"s.	c #5482CF",
"t.	c #5281CD",
"u.	c #5381CE",
"v.	c #4B79C3",
"w.	c #4875BE",
"x.	c #4C79C4",
"y.	c #5584D2",
"z.	c #517FCB",
"A.	c #305592",
"B.	c #325793",
"C.	c #345893",
"D.	c #355993",
"E.	c #365A94",
"F.	c #375A94",
"G.	c #385B94",
"H.	c #395C95",
"I.	c #3B5D95",
"J.	c #3D5F96",
"K.	c #3D64A3",
"L.	c #507ECA",
"M.	c #365EA0",
"N.	c #4C73B2",
"O.	c #6185C0",
"P.	c #6286C1",
"Q.	c #6386C2",
"R.	c #6C8CC3",
"S.	c #7593C5",
"T.	c #7996C6",
"U.	c #7F9AC8",
"V.	c #849EC9",
"W.	c #8AA3CB",
"X.	c #92A9CD",
"Y.	c #99AED0",
"Z.	c #A5B6D2",
"`.	c #BAC6DB",
" +	c #A5B7D5",
".+	c #3861A4",
"++	c #4F7DC8",
"@+	c #507EC9",
"#+	c #264B89",
"$+	c #5679B5",
"%+	c #85A8E1",
"&+	c #82A4DD",
"*+	c #7EA1D9",
"=+	c #7FA2DB",
"-+	c #80A3DD",
";+	c #8EADE1",
">+	c #9CB6E4",
",+	c #A8C1E9",
"'+	c #B4CAED",
")+	c #BFD1F0",
"!+	c #C8D8F2",
"~+	c #D4E1F6",
"{+	c #E0EAF9",
"]+	c #F3F7FE",
"^+	c #F1F4F8",
"/+	c #EAEEF5",
"(+	c #284E8C",
"_+	c #5579B5",
":+	c #82A5DE",
"<+	c #1D3967",
"[+	c #2D4B7A",
"}+	c #3D65A7",
"|+	c #2D59A3",
"1+	c #3E67AD",
"2+	c #4069AE",
"3+	c #3E67AC",
"4+	c #B0C6EA",
"5+	c #BACDED",
"6+	c #C3D4EF",
"7+	c #CFDDF3",
"8+	c #DAE5F6",
"9+	c #EDF2FB",
"0+	c #274D8B",
"a+	c #5280CC",
"b+	c #1B3765",
"c+	c #285093",
"d+	c #2C58A2",
"e+	c #335EA6",
"f+	c #1F3C6A",
"g+	c #1C3866",
"h+	c #254985",
"i+	c #ADC4E9",
"j+	c #B7CBEC",
"k+	c #C2D3EF",
"l+	c #CCDAF2",
"m+	c #D6E2F5",
"n+	c #EBF1FA",
"o+	c #4F7ECA",
"p+	c #4976BF",
"q+	c #24406F",
"r+	c #23457E",
"s+	c #3C66AB",
"t+	c #AAC1E8",
"u+	c #C0D1EE",
"v+	c #C9D8F1",
"w+	c #D2DFF4",
"x+	c #E9EFFA",
"y+	c #4B79C2",
"z+	c #23406F",
"A+	c #3C65AB",
"B+	c #A8C0E8",
"C+	c #B2C7EB",
"D+	c #BDCFEE",
"E+	c #C6D6F0",
"F+	c #CFDCF3",
"G+	c #E7EEF9",
"H+	c #3460A9",
"I+	c #5280CD",
"J+	c #81A4DE",
"K+	c #264E92",
"L+	c #305BA5",
"M+	c #B7CCED",
"N+	c #C1D2EF",
"O+	c #CAD8F1",
"P+	c #E4ECF8",
"Q+	c #305798",
"R+	c #5B7DB6",
"S+	c #8FAFE2",
"T+	c #4368A6",
"U+	c #305BA4",
"V+	c #2F5AA3",
"W+	c #3660A7",
"X+	c #4970B0",
"Y+	c #D8E3F5",
"Z+	c #DEE7F6",
"`+	c #EEF3FB",
" @	c #5686D3",
".@	c #5585D2",
"+@	c #4C79C3",
"@@	c #274D8A",
"#@	c #6686B9",
"$@	c #A5BFE9",
"%@	c #9FB8E2",
"&@	c #99B2DA",
"*@	c #ABC0E2",
"=@	c #BECEEB",
"-@	c #D6E0F1",
";@	c #EEF1F7",
">@	c #F5F7FC",
",@	c #FCFEFF",
"'@	c #FEFFFF",
")@	c #3D6BB4",
"!@	c #4977C3",
"~@	c #3964AA",
"{@	c #295191",
"]@	c #5679B2",
"^@	c #83A1D3",
"/@	c #84A2D4",
"(@	c #85A3D6",
"_@	c #93ADD8",
":@	c #A1B7DC",
"<@	c #B4C4E0",
"[@	c #C7D2E6",
"}@	c #C5D1E5",
"|@	c #C4D0E4",
"1@	c #C3D0E4",
"2@	c #C3CFE4",
"3@	c #C2CFE4",
"4@	c #758FBB",
"5@	c #325EA6",
"6@	c #2F5BA3",
"7@	c #3760A5",
"8@	c #436BAD",
"9@	c #466DAE",
"0@	c #4A70AF",
"a@	c #4E73B0",
"b@	c #5377B2",
"c@	c #3F66A7",
"d@	c #325EA7",
". . . . . . . . . . . . . . . . . . . . . . . . . . . . . . .   ",
". . + @ . # $ % % % % % % % % % % % % % % % % % & * . @ + . .   ",
". . = - # ; > , ' ) ) ! ! ! ! ! ! ~ ) ) ) ) ~ { ] ^ / - = . .   ",
". . ( _ : < [ } } | | } } } } } } [ [ [ [ [ [ [ [ 1 2 _ 3 . .   ",
". . 4 3 5 6 7 8 9 0 0 0 0 0 0 0 0 a 0 0 0 0 0 a [ b c 3 3 . .   ",
". . d e f g h 8 i j j k k l m n n o l j j j m p } q r s t . .   ",
". u v w x y 7 p z A A A A B A A A A C C D D E A { F G w H . .   ",
". I w w x J B [ A K K L L L L L L L M N O O A [ { P F w Q . .   ",
". . R w a J S [ A T T U U V W U U X Y Y p A p A [ Z ` w Q . .   ",
". . R w a J  .[ o B ....+.@.@...#.#.B h S $.%.A &.G *.w Q . .   ",
". . R w a J =.p B A #.-.-.-.-.-.;.#.>.B ,.'.).A { !.~.w Q . .   ",
". . {.w a J =.A E A #.].#.-.-.-.A B A A ^./.(._.{ !.~.w Q . .   ",
". . {.w :.<.[.[ [ A A A A p p A A A p p }.|.1.a ^.2.~.w Q . .   ",
". . {.w 3.4.5.[ [ [ [ [ [ [ [ [ [ [ [ [ [ 6.[ [ [ 7.7.w Q . .   ",
". . {.w 8.` 9.9.9.9.9.9.9.9.9.9.0.0.a.a.a.a.a.b.c.d.e.w Q . .   ",
". . {.w *.*.f.f.f.f.f.f.f.f.f.f.g.g.~.~.~.~.~.h.7.i.G w Q . .   ",
". . {.w w w j.k.l.m.m.m.m.m.m.m.m.m.m.m.m.m.m.m.n.w w w Q . .   ",
". . {.w w w w w o.p.p.p.p.p.p.o.q.r.r.r.r.r.r.r.s.w w w Q . .   ",
". . {.w w w w w o.p.p.p.p.p.p.t.u.v.v.v.v.v.v.w.x.y.w w Q . .   ",
". . w w w w z.A.A.A.A.A.A.A.B.C.D.E.F.G.H.I.J.G.K.A.w w Q . .   ",
". . {.w w w L.M.N.O.P.Q.P.P.R.S.T.U.V.W.X.Y.Z.`. +.+w ++Q . .   ",
". . {.w w w @+#+$+%+&+*+=+-+;+>+,+'+)+!+~+{+]+^+/+#+w w Q . .   ",
". . {.w w w @+(+_+:+<+[+}+|+1+2+3+4+5+6+7+8+9+[ [ 0+w w Q . .   ",
". . R w w w a+0+_+:+<+b+c+d+d+d+e+4+5+6+7+8+9+[ [ 0+w w Q . .   ",
". . u.w w w ++0+_+:+f+g+h+|+|+|+e+i+j+k+l+m+n+[ [ 0+w w Q . .   ",
". . o+w w w p+0+_+:+q+g+r+|+|+|+s+t+i u+v+w+x+[ [ 0+w w Q . .   ",
". . o+w w w y+0+_+:+z+g+h+|+|+|+A+B+C+D+E+F+G+[ [ 0+w w Q . .   ",
". H+I+w w w a+0+_+J+g+g+K+d+d+d+L+6.i+M+N+O+P+[ [ Q+L.w Q . .   ",
". . w w w w L.0+R+S+g+g+T+U+V+W+X+E+l+w+Y+Z+`+[ [ Q+L.w Q . .   ",
". . H  @.@w +@@@#@$@%@&@*@=@-@;@>@,@A '@[ [ [ [ [ @@w  @H . .   ",
". . )@!@!@w ~@{@]@^@/@(@_@:@<@[@}@|@|@|@1@1@2@3@4@{@w !@. . .   ",
"  . 5@H+H+H+6@= 7@8@8@8@9@0@a@b@b@b@b@b@b@b@b@b@c@= 6@d@. .     "};
