/* XPM */
static char * sphere_xpm[] = {
"32 32 136 2",
"  	c None",
". 	c #979797",
"+ 	c #969696",
"@ 	c #8F8F8F",
"# 	c #9A9A9A",
"$ 	c #A8A8A8",
"% 	c #B3B3B3",
"& 	c #B9B9B9",
"* 	c #BBBBBB",
"= 	c #BABABA",
"- 	c #B4B4B4",
"; 	c #ABABAB",
"> 	c #A2A2A2",
", 	c #8D8D8D",
"' 	c #9E9E9E",
") 	c #B0B0B0",
"! 	c #BFBFBF",
"~ 	c #C8C8C8",
"{ 	c #CFCFCF",
"] 	c #D3D3D3",
"^ 	c #D6D6D6",
"/ 	c #D7D7D7",
"( 	c #D5D5D5",
"_ 	c #D2D2D2",
": 	c #CCCCCC",
"< 	c #C3C3C3",
"[ 	c #B6B6B6",
"} 	c #A4A4A4",
"| 	c #939393",
"1 	c #ACACAC",
"2 	c #BDBDBD",
"3 	c #C9C9C9",
"4 	c #DDDDDD",
"5 	c #E2E2E2",
"6 	c #E6E6E6",
"7 	c #E8E8E8",
"8 	c #E9E9E9",
"9 	c #E1E1E1",
"0 	c #DBDBDB",
"a 	c #C4C4C4",
"b 	c #B1B1B1",
"c 	c #D1D1D1",
"d 	c #DCDCDC",
"e 	c #E5E5E5",
"f 	c #ECECEC",
"g 	c #F1F1F1",
"h 	c #F4F4F4",
"i 	c #F6F6F6",
"j 	c #F7F7F7",
"k 	c #F5F5F5",
"l 	c #E4E4E4",
"m 	c #DADADA",
"n 	c #B8B8B8",
"o 	c #A0A0A0",
"p 	c #959595",
"q 	c #C5C5C5",
"r 	c #D4D4D4",
"s 	c #E0E0E0",
"t 	c #EAEAEA",
"u 	c #F2F2F2",
"v 	c #F9F9F9",
"w 	c #FBFBFB",
"x 	c #FCFCFC",
"y 	c #FDFDFD",
"z 	c #DFDFDF",
"A 	c #9F9F9F",
"B 	c #8C8C8C",
"C 	c #C2C2C2",
"D 	c #FEFEFE",
"E 	c #FFFFFF",
"F 	c #CDCDCD",
"G 	c #7F7F7F",
"H 	c #DEDEDE",
"I 	c #EBEBEB",
"J 	c #A9A9A9",
"K 	c #909090",
"L 	c #C7C7C7",
"M 	c #D8D8D8",
"N 	c #E7E7E7",
"O 	c #F3F3F3",
"P 	c #BCBCBC",
"Q 	c #9D9D9D",
"R 	c #7D7D7D",
"S 	c #D0D0D0",
"T 	c #EEEEEE",
"U 	c #A7A7A7",
"V 	c #858585",
"W 	c #B5B5B5",
"X 	c #919191",
"Y 	c #F8F8F8",
"Z 	c #BEBEBE",
"` 	c #CBCBCB",
" .	c #FAFAFA",
"..	c #EDEDED",
"+.	c #A5A5A5",
"@.	c #777777",
"#.	c #B7B7B7",
"$.	c #C6C6C6",
"%.	c #A6A6A6",
"&.	c #747474",
"*.	c #9B9B9B",
"=.	c #737373",
"-.	c #989898",
";.	c #707070",
">.	c #949494",
",.	c #B2B2B2",
"'.	c #D9D9D9",
").	c #C0C0C0",
"!.	c #E3E3E3",
"~.	c #F0F0F0",
"{.	c #999999",
"].	c #808080",
"^.	c #CACACA",
"/.	c #AFAFAF",
"(.	c #EFEFEF",
"_.	c #888888",
":.	c #929292",
"<.	c #8B8B8B",
"[.	c #6C6C6C",
"}.	c #898989",
"|.	c #CECECE",
"1.	c #6F6F6F",
"2.	c #A1A1A1",
"3.	c #8E8E8E",
"4.	c #6E6E6E",
"5.	c #848484",
"6.	c #8A8A8A",
"7.	c #797979",
"8.	c #9C9C9C",
"9.	c #AEAEAE",
"0.	c #A3A3A3",
"a.	c #818181",
"b.	c #7A7A7A",
"c.	c #787878",
"d.	c #7C7C7C",
"e.	c #7E7E7E",
"                                                                ",
"                            . + .                               ",
"                    @ # $ % & * * = - ; >                       ",
"                , ' ) ! ~ { ] ^ / ( _ : < [ }                   ",
"              | 1 2 3 ( 4 5 6 7 8 7 6 9 0 _ a b '               ",
"            . b < c d e f g h i j j k g f l m : n o             ",
"          p b q r s t u i v w x x y y x v u t z { & A           ",
"        B 1 C ] s f h v x D E E E E E D D y i f z F -           ",
"      G > * { H I h w D E E E E E E E E E E y j I d ~ J         ",
"      K b L M N O w E E E E E E E E E E E E E y h 6 ( P Q       ",
"    R o * S s T v E E E E E E E E E E E E E E D w T H 3 U       ",
"    V ; < ( e O y E E E E E E E E E E E E E E E y h e c W       ",
"    X b ~ m 8 j y E E E E E E E E E E E E E E E y Y t M Z       ",
"    . W ` 4 f Y y E E E E E E E E E E E E E E E D  ...0 < +.    ",
"  @.# #.: H ..Y y E E E E E E E E E E E E E E E D w T 4 $.%.    ",
"  &.*.#.: H ..Y x E E E E E E E E E E E E E E E D v T 4 $.+.    ",
"  =.-.W ` d I i w E E E E E E E E E E E E E E E D Y f 0 a >     ",
"  ;.>.,.L '.7 h  .D E E E E E E E E E E E E E E x i 8 M ).Q     ",
"    B 1 C r !.~.Y y E E E E E E E E E E E E E D  .u !._ & {.    ",
"    ].} * F 4 I k  .D E E E E E E E E E E E E x i f 4 ^./.      ",
"    &.-.,.$.^ !.(.i w E E E E E E E E E E E D Y ~.l ( ).o       ",
"      _.%.P : 0 N ~.i w D E E E E E E E E D v u 7 0 ^.% :.      ",
"      &.. /.C S 4 N ~.k v w y D D y D D y Y g 8 4 { * A         ",
"        ].A % a c 0 e f u k Y v  . . .v h T 6 0 S ! J <.        ",
"        [.}.> - C |.M z 6 I T g u g (.f N s M F ! ; K           ",
"          1.}.2.b Z ~ S / d s !.!.!.9 4 M c L = $ 3.            ",
"            4.5.# J W ! $.: { _ ] _ S : $.2 b 2.6.              ",
"                7., 8.J ,.n 2 ! ).Z P [ 9.0.:.a.                ",
"                  1.b.}.+ ' 0.+.%.} o {.B ].                    ",
"                        ;.c.d.e.e.e.d.                          ",
"                                                                ",
"                                                                "};
