/* XPM */
static char * subtract_xpm[] = {
"32 32 78 1",
" 	c None",
".	c #505050",
"+	c #767676",
"@	c #B8B8B8",
"#	c #D7D7D7",
"$	c #A7A7A7",
"%	c #545454",
"&	c #727272",
"*	c #BFBFBF",
"=	c #D3D3D3",
"-	c #8D8D8D",
";	c #353535",
">	c #757575",
",	c #C0C0C0",
"'	c #B3B3B3",
")	c #2C2C2C",
"!	c #818181",
"~	c #C3C3C3",
"{	c #BBBBBB",
"]	c #606060",
"^	c #898989",
"/	c #363636",
"(	c #828282",
"_	c #C8C8C8",
":	c #D6D6D6",
"<	c #6C6C6C",
"[	c #BDBDBD",
"}	c #9A9A9A",
"|	c #949494",
"1	c #D1D1D1",
"2	c #686868",
"3	c #C2C2C2",
"4	c #9B9B9B",
"5	c #B2B2B2",
"6	c #8F8F8F",
"7	c #656565",
"8	c #B1B1B1",
"9	c #636363",
"0	c #B7B7B7",
"a	c #787878",
"b	c #717171",
"c	c #C7C7C7",
"d	c #AAAAAA",
"e	c #737373",
"f	c #969696",
"g	c #ABABAB",
"h	c #676767",
"i	c #D2D2D2",
"j	c #C4C4C4",
"k	c #646464",
"l	c #585858",
"m	c #979797",
"n	c #616161",
"o	c #838383",
"p	c #D0D0D0",
"q	c #4A4A4A",
"r	c #B9B9B9",
"s	c #7E7E7E",
"t	c #AFAFAF",
"u	c #747474",
"v	c #858585",
"w	c #E0E0E0",
"x	c #B4B4B4",
"y	c #D8D8D8",
"z	c #494949",
"A	c #484848",
"B	c #3C3C3C",
"C	c #5F5F5F",
"D	c #B6B6B6",
"E	c #414141",
"F	c #BABABA",
"G	c #A5A5A5",
"H	c #B5B5B5",
"I	c #6B6B6B",
"J	c #DFDFDF",
"K	c #A8A8A8",
"L	c #595959",
"M	c #565656",
"                                ",
"                                ",
"                                ",
"                                ",
"            .                   ",
"          +@#$%                 ",
"        &*####=-;               ",
"      >,########')              ",
"    !~#########{]^              ",
" /(_##########:<[}              ",
" ]|:##########1234              ",
" 5678#########:934              ",
" 5{0abc########def              ",
" 5{{{gh-i######jkl              ",
" 5{{{{{mnd:##3aopq              ",
" 5{{{{{{rshtuviwwq              ",
" x{{{{{{{{x>ywwwwz              ",
" '{{{{{{{{{4wwwwwA              ",
" 5{{{{{{{{{4wwwwwz              ",
" 5{{{{{{{{{4wwwwwq              ",
" 5{{{{{{{{{4wwwwwB              ",
" 5{{{{{{{{{4wwwww               ",
" 5{{{{{{{{{4wwwww               ",
" Cg{{{{{{{{4wwwww               ",
"  BeD{{{{{{4wwwww               ",
"    E6F{{{{4wwwww               ",
"      lG{{{4wwwwH               ",
"        I5{4wJ$k                ",
"         .ofKL                  ",
"           M                    ",
"                                ",
"                                "};
